<?xml version="1.0" standalone="yes"?>
<!-- SVG graphic -->
<svg xmlns='http://www.w3.org/2000/svg' xmlns:xlink='http://www.w3.org/1999/xlink'
 version="1.1">
<rect x="0" y="0" width="6" height="200" stroke="black" stroke-width="1" fill="blue" tooltip="enable"><title>(0,983)</title></rect><rect x="6" y="113.53" width="6" height="86.47" stroke="black" stroke-width="1" fill="blue" tooltip="enable"><title>(0.106587,425)</title></rect><rect x="12" y="127.976" width="6" height="72.0244" stroke="black" stroke-width="1" fill="blue" tooltip="enable"><title>(0.213174,354)</title></rect><rect x="18" y="137.742" width="6" height="62.2584" stroke="black" stroke-width="1" fill="blue" tooltip="enable"><title>(0.31976,306)</title></rect><rect x="24" y="155.849" width="6" height="44.1506" stroke="black" stroke-width="1" fill="blue" tooltip="enable"><title>(0.426347,217)</title></rect><rect x="30" y="161.546" width="6" height="38.4537" stroke="black" stroke-width="1" fill="blue" tooltip="enable"><title>(0.532934,189)</title></rect><rect x="36" y="165.005" width="6" height="34.9949" stroke="black" stroke-width="1" fill="blue" tooltip="enable"><title>(0.639521,172)</title></rect><rect x="42" y="172.126" width="6" height="27.8739" stroke="black" stroke-width="1" fill="blue" tooltip="enable"><title>(0.746108,137)</title></rect><rect x="48" y="175.381" width="6" height="24.6185" stroke="black" stroke-width="1" fill="blue" tooltip="enable"><title>(0.852694,121)</title></rect><rect x="54" y="178.637" width="6" height="21.3632" stroke="black" stroke-width="1" fill="blue" tooltip="enable"><title>(0.959281,105)</title></rect><rect x="60" y="185.148" width="6" height="14.8525" stroke="black" stroke-width="1" fill="blue" tooltip="enable"><title>(1.06587,73)</title></rect><rect x="66" y="190.437" width="6" height="9.56256" stroke="black" stroke-width="1" fill="blue" tooltip="enable"><title>(1.17245,47)</title></rect><rect x="72" y="185.961" width="6" height="14.0387" stroke="black" stroke-width="1" fill="blue" tooltip="enable"><title>(1.27904,69)</title></rect><rect x="78" y="191.862" width="6" height="8.13835" stroke="black" stroke-width="1" fill="blue" tooltip="enable"><title>(1.38563,40)</title></rect><rect x="84" y="191.048" width="6" height="8.95219" stroke="black" stroke-width="1" fill="blue" tooltip="enable"><title>(1.49222,44)</title></rect><rect x="90" y="193.896" width="6" height="6.10376" stroke="black" stroke-width="1" fill="blue" tooltip="enable"><title>(1.5988,30)</title></rect><rect x="96" y="194.303" width="6" height="5.69685" stroke="black" stroke-width="1" fill="blue" tooltip="enable"><title>(1.70539,28)</title></rect><rect x="102" y="196.338" width="6" height="3.66226" stroke="black" stroke-width="1" fill="blue" tooltip="enable"><title>(1.81198,18)</title></rect><rect x="108" y="194.914" width="6" height="5.08647" stroke="black" stroke-width="1" fill="blue" tooltip="enable"><title>(1.91856,25)</title></rect><rect x="114" y="196.134" width="6" height="3.86572" stroke="black" stroke-width="1" fill="blue" tooltip="enable"><title>(2.02515,19)</title></rect><rect x="120" y="196.948" width="6" height="3.05188" stroke="black" stroke-width="1" fill="blue" tooltip="enable"><title>(2.13174,15)</title></rect><rect x="126" y="195.117" width="6" height="4.88301" stroke="black" stroke-width="1" fill="blue" tooltip="enable"><title>(2.23832,24)</title></rect><rect x="132" y="197.558" width="6" height="2.44151" stroke="black" stroke-width="1" fill="blue" tooltip="enable"><title>(2.34491,12)</title></rect><rect x="138" y="197.558" width="6" height="2.44151" stroke="black" stroke-width="1" fill="blue" tooltip="enable"><title>(2.4515,12)</title></rect><rect x="144" y="197.152" width="6" height="2.84842" stroke="black" stroke-width="1" fill="blue" tooltip="enable"><title>(2.55808,14)</title></rect><rect x="150" y="196.948" width="6" height="3.05188" stroke="black" stroke-width="1" fill="blue" tooltip="enable"><title>(2.66467,15)</title></rect><rect x="156" y="198.169" width="6" height="1.83113" stroke="black" stroke-width="1" fill="blue" tooltip="enable"><title>(2.77126,9)</title></rect><rect x="162" y="197.762" width="6" height="2.23805" stroke="black" stroke-width="1" fill="blue" tooltip="enable"><title>(2.87784,11)</title></rect><rect x="168" y="198.169" width="6" height="1.83113" stroke="black" stroke-width="1" fill="blue" tooltip="enable"><title>(2.98443,9)</title></rect><rect x="174" y="199.39" width="6" height="0.610376" stroke="black" stroke-width="1" fill="blue" tooltip="enable"><title>(3.09102,3)</title></rect><rect x="180" y="198.576" width="6" height="1.42421" stroke="black" stroke-width="1" fill="blue" tooltip="enable"><title>(3.1976,7)</title></rect><rect x="186" y="198.779" width="6" height="1.22075" stroke="black" stroke-width="1" fill="blue" tooltip="enable"><title>(3.30419,6)</title></rect><rect x="192" y="197.558" width="6" height="2.44151" stroke="black" stroke-width="1" fill="blue" tooltip="enable"><title>(3.41078,12)</title></rect><rect x="198" y="198.779" width="6" height="1.22075" stroke="black" stroke-width="1" fill="blue" tooltip="enable"><title>(3.51736,6)</title></rect><rect x="204" y="198.779" width="6" height="1.22075" stroke="black" stroke-width="1" fill="blue" tooltip="enable"><title>(3.62395,6)</title></rect><rect x="210" y="198.779" width="6" height="1.22075" stroke="black" stroke-width="1" fill="blue" tooltip="enable"><title>(3.73054,6)</title></rect><rect x="216" y="198.576" width="6" height="1.42421" stroke="black" stroke-width="1" fill="blue" tooltip="enable"><title>(3.83712,7)</title></rect><rect x="222" y="198.983" width="6" height="1.01729" stroke="black" stroke-width="1" fill="blue" tooltip="enable"><title>(3.94371,5)</title></rect><rect x="228" y="198.983" width="6" height="1.01729" stroke="black" stroke-width="1" fill="blue" tooltip="enable"><title>(4.0503,5)</title></rect><rect x="234" y="199.593" width="6" height="0.406918" stroke="black" stroke-width="1" fill="blue" tooltip="enable"><title>(4.15689,2)</title></rect><rect x="240" y="199.39" width="6" height="0.610376" stroke="black" stroke-width="1" fill="blue" tooltip="enable"><title>(4.26347,3)</title></rect><rect x="246" y="199.39" width="6" height="0.610376" stroke="black" stroke-width="1" fill="blue" tooltip="enable"><title>(4.37006,3)</title></rect><rect x="252" y="199.797" width="6" height="0.203459" stroke="black" stroke-width="1" fill="blue" tooltip="enable"><title>(4.47665,1)</title></rect><rect x="258" y="199.39" width="6" height="0.610376" stroke="black" stroke-width="1" fill="blue" tooltip="enable"><title>(4.58323,3)</title></rect><rect x="264" y="199.39" width="6" height="0.610376" stroke="black" stroke-width="1" fill="blue" tooltip="enable"><title>(4.68982,3)</title></rect><rect x="270" y="199.797" width="6" height="0.203459" stroke="black" stroke-width="1" fill="blue" tooltip="enable"><title>(4.79641,1)</title></rect><rect x="276" y="199.797" width="6" height="0.203459" stroke="black" stroke-width="1" fill="blue" tooltip="enable"><title>(4.90299,1)</title></rect><rect x="282" y="199.797" width="6" height="0.203459" stroke="black" stroke-width="1" fill="blue" tooltip="enable"><title>(5.00958,1)</title></rect><rect x="288" y="199.593" width="6" height="0.406918" stroke="black" stroke-width="1" fill="blue" tooltip="enable"><title>(5.11617,2)</title></rect><rect x="294" y="199.593" width="6" height="0.406918" stroke="black" stroke-width="1" fill="blue" tooltip="enable"><title>(5.22275,2)</title></rect><rect x="300" y="200" width="6" height="0" stroke="black" stroke-width="1" fill="blue" tooltip="enable"><title>(5.32934,0)</title></rect><rect x="306" y="199.797" width="6" height="0.203459" stroke="black" stroke-width="1" fill="blue" tooltip="enable"><title>(5.43593,1)</title></rect><rect x="312" y="199.593" width="6" height="0.406918" stroke="black" stroke-width="1" fill="blue" tooltip="enable"><title>(5.54251,2)</title></rect><rect x="318" y="200" width="6" height="0" stroke="black" stroke-width="1" fill="blue" tooltip="enable"><title>(5.6491,0)</title></rect><rect x="324" y="200" width="6" height="0" stroke="black" stroke-width="1" fill="blue" tooltip="enable"><title>(5.75569,0)</title></rect><rect x="330" y="200" width="6" height="0" stroke="black" stroke-width="1" fill="blue" tooltip="enable"><title>(5.86227,0)</title></rect><rect x="336" y="200" width="6" height="0" stroke="black" stroke-width="1" fill="blue" tooltip="enable"><title>(5.96886,0)</title></rect><rect x="342" y="200" width="6" height="0" stroke="black" stroke-width="1" fill="blue" tooltip="enable"><title>(6.07545,0)</title></rect><rect x="348" y="199.797" width="6" height="0.203459" stroke="black" stroke-width="1" fill="blue" tooltip="enable"><title>(6.18203,1)</title></rect><rect x="354" y="200" width="6" height="0" stroke="black" stroke-width="1" fill="blue" tooltip="enable"><title>(6.28862,0)</title></rect><rect x="360" y="200" width="6" height="0" stroke="black" stroke-width="1" fill="blue" tooltip="enable"><title>(6.39521,0)</title></rect><rect x="366" y="199.797" width="6" height="0.203459" stroke="black" stroke-width="1" fill="blue" tooltip="enable"><title>(6.50179,1)</title></rect><rect x="372" y="199.593" width="6" height="0.406918" stroke="black" stroke-width="1" fill="blue" tooltip="enable"><title>(6.60838,2)</title></rect><rect x="378" y="200" width="6" height="0" stroke="black" stroke-width="1" fill="blue" tooltip="enable"><title>(6.71497,0)</title></rect><rect x="384" y="200" width="6" height="0" stroke="black" stroke-width="1" fill="blue" tooltip="enable"><title>(6.82156,0)</title></rect><rect x="390" y="200" width="6" height="0" stroke="black" stroke-width="1" fill="blue" tooltip="enable"><title>(6.92814,0)</title></rect><rect x="396" y="200" width="6" height="0" stroke="black" stroke-width="1" fill="blue" tooltip="enable"><title>(7.03473,0)</title></rect><rect x="402" y="199.797" width="6" height="0.203459" stroke="black" stroke-width="1" fill="blue" tooltip="enable"><title>(7.14132,1)</title></rect><rect x="408" y="200" width="6" height="0" stroke="black" stroke-width="1" fill="blue" tooltip="enable"><title>(7.2479,0)</title></rect><rect x="414" y="199.797" width="6" height="0.203459" stroke="black" stroke-width="1" fill="blue" tooltip="enable"><title>(7.35449,1)</title></rect><rect x="420" y="199.797" width="6" height="0.203459" stroke="black" stroke-width="1" fill="blue" tooltip="enable"><title>(7.46108,1)</title></rect><rect x="426" y="200" width="6" height="0" stroke="black" stroke-width="1" fill="blue" tooltip="enable"><title>(7.56766,0)</title></rect><rect x="432" y="199.797" width="6" height="0.203459" stroke="black" stroke-width="1" fill="blue" tooltip="enable"><title>(7.67425,1)</title></rect><rect x="438" y="200" width="6" height="0" stroke="black" stroke-width="1" fill="blue" tooltip="enable"><title>(7.78084,0)</title></rect><rect x="444" y="200" width="6" height="0" stroke="black" stroke-width="1" fill="blue" tooltip="enable"><title>(7.88742,0)</title></rect><rect x="450" y="199.797" width="6" height="0.203459" stroke="black" stroke-width="1" fill="blue" tooltip="enable"><title>(7.99401,1)</title></rect><rect x="456" y="200" width="6" height="0" stroke="black" stroke-width="1" fill="blue" tooltip="enable"><title>(8.1006,0)</title></rect><rect x="462" y="200" width="6" height="0" stroke="black" stroke-width="1" fill="blue" tooltip="enable"><title>(8.20718,0)</title></rect><rect x="468" y="200" width="6" height="0" stroke="black" stroke-width="1" fill="blue" tooltip="enable"><title>(8.31377,0)</title></rect><rect x="474" y="200" width="6" height="0" stroke="black" stroke-width="1" fill="blue" tooltip="enable"><title>(8.42036,0)</title></rect><rect x="480" y="200" width="6" height="0" stroke="black" stroke-width="1" fill="blue" tooltip="enable"><title>(8.52694,0)</title></rect><rect x="486" y="200" width="6" height="0" stroke="black" stroke-width="1" fill="blue" tooltip="enable"><title>(8.63353,0)</title></rect><rect x="492" y="200" width="6" height="0" stroke="black" stroke-width="1" fill="blue" tooltip="enable"><title>(8.74012,0)</title></rect><rect x="498" y="200" width="6" height="0" stroke="black" stroke-width="1" fill="blue" tooltip="enable"><title>(8.8467,0)</title></rect><rect x="504" y="200" width="6" height="0" stroke="black" stroke-width="1" fill="blue" tooltip="enable"><title>(8.95329,0)</title></rect><rect x="510" y="200" width="6" height="0" stroke="black" stroke-width="1" fill="blue" tooltip="enable"><title>(9.05988,0)</title></rect><rect x="516" y="200" width="6" height="0" stroke="black" stroke-width="1" fill="blue" tooltip="enable"><title>(9.16646,0)</title></rect><rect x="522" y="200" width="6" height="0" stroke="black" stroke-width="1" fill="blue" tooltip="enable"><title>(9.27305,0)</title></rect><rect x="528" y="200" width="6" height="0" stroke="black" stroke-width="1" fill="blue" tooltip="enable"><title>(9.37964,0)</title></rect><rect x="534" y="200" width="6" height="0" stroke="black" stroke-width="1" fill="blue" tooltip="enable"><title>(9.48623,0)</title></rect><rect x="540" y="200" width="6" height="0" stroke="black" stroke-width="1" fill="blue" tooltip="enable"><title>(9.59281,0)</title></rect><rect x="546" y="200" width="6" height="0" stroke="black" stroke-width="1" fill="blue" tooltip="enable"><title>(9.6994,0)</title></rect><rect x="552" y="200" width="6" height="0" stroke="black" stroke-width="1" fill="blue" tooltip="enable"><title>(9.80599,0)</title></rect><rect x="558" y="200" width="6" height="0" stroke="black" stroke-width="1" fill="blue" tooltip="enable"><title>(9.91257,0)</title></rect><rect x="564" y="200" width="6" height="0" stroke="black" stroke-width="1" fill="blue" tooltip="enable"><title>(10.0192,0)</title></rect><rect x="570" y="200" width="6" height="0" stroke="black" stroke-width="1" fill="blue" tooltip="enable"><title>(10.1257,0)</title></rect><rect x="576" y="200" width="6" height="0" stroke="black" stroke-width="1" fill="blue" tooltip="enable"><title>(10.2323,0)</title></rect><rect x="582" y="199.797" width="6" height="0.203459" stroke="black" stroke-width="1" fill="blue" tooltip="enable"><title>(10.3389,1)</title></rect><rect x="588" y="200" width="6" height="0" stroke="black" stroke-width="1" fill="blue" tooltip="enable"><title>(10.4455,0)</title></rect><rect x="594" y="199.797" width="6" height="0.203459" stroke="black" stroke-width="1" fill="blue" tooltip="enable"><title>(10.5521,1)</title></rect><text x="30" y="240" font-size="20" fill="black">0</text>
<text x="600" y="240" font-size="20" fill="black">10.6587</text>
<polyline points="0,220,600,220" stroke="black" stroke-width="1" fill="none"/>
<text x="720" y="20" font-size="20" fill="black">983</text>
<text x="720" y="200" font-size="20" fill="black">0</text>
<polyline points="660,0,660,200" stroke="black" stroke-width="1" fill="none"/>
</svg>