<?xml version="1.0" standalone="yes"?>
<!-- SVG graphic -->
<svg xmlns='http://www.w3.org/2000/svg' xmlns:xlink='http://www.w3.org/1999/xlink'
 version="1.1">
<rect x="0" y="-1.52588e-05" width="6" height="200" stroke="black" stroke-width="1" fill="blue" tooltip="enable"><title>(0,1173)</title></rect><rect x="6" y="96.8457" width="6" height="103.154" stroke="black" stroke-width="1" fill="blue" tooltip="enable"><title>(0.0909028,605)</title></rect><rect x="12" y="128.559" width="6" height="71.4408" stroke="black" stroke-width="1" fill="blue" tooltip="enable"><title>(0.181806,419)</title></rect><rect x="18" y="148.508" width="6" height="51.4919" stroke="black" stroke-width="1" fill="blue" tooltip="enable"><title>(0.272708,302)</title></rect><rect x="24" y="149.702" width="6" height="50.2984" stroke="black" stroke-width="1" fill="blue" tooltip="enable"><title>(0.363611,295)</title></rect><rect x="30" y="164.876" width="6" height="35.1236" stroke="black" stroke-width="1" fill="blue" tooltip="enable"><title>(0.454514,206)</title></rect><rect x="36" y="170.503" width="6" height="29.497" stroke="black" stroke-width="1" fill="blue" tooltip="enable"><title>(0.545417,173)</title></rect><rect x="42" y="169.48" width="6" height="30.52" stroke="black" stroke-width="1" fill="blue" tooltip="enable"><title>(0.63632,179)</title></rect><rect x="48" y="175.959" width="6" height="24.0409" stroke="black" stroke-width="1" fill="blue" tooltip="enable"><title>(0.727222,141)</title></rect><rect x="54" y="184.655" width="6" height="15.3453" stroke="black" stroke-width="1" fill="blue" tooltip="enable"><title>(0.818125,90)</title></rect><rect x="60" y="182.609" width="6" height="17.3913" stroke="black" stroke-width="1" fill="blue" tooltip="enable"><title>(0.909028,102)</title></rect><rect x="66" y="186.53" width="6" height="13.4697" stroke="black" stroke-width="1" fill="blue" tooltip="enable"><title>(0.999931,79)</title></rect><rect x="72" y="185.166" width="6" height="14.8338" stroke="black" stroke-width="1" fill="blue" tooltip="enable"><title>(1.09083,87)</title></rect><rect x="78" y="191.986" width="6" height="8.01364" stroke="black" stroke-width="1" fill="blue" tooltip="enable"><title>(1.18174,47)</title></rect><rect x="84" y="189.599" width="6" height="10.4007" stroke="black" stroke-width="1" fill="blue" tooltip="enable"><title>(1.27264,61)</title></rect><rect x="90" y="190.793" width="6" height="9.20716" stroke="black" stroke-width="1" fill="blue" tooltip="enable"><title>(1.36354,54)</title></rect><rect x="96" y="191.816" width="6" height="8.18414" stroke="black" stroke-width="1" fill="blue" tooltip="enable"><title>(1.45444,48)</title></rect><rect x="102" y="193.691" width="6" height="6.30861" stroke="black" stroke-width="1" fill="blue" tooltip="enable"><title>(1.54535,37)</title></rect><rect x="108" y="193.521" width="6" height="6.47911" stroke="black" stroke-width="1" fill="blue" tooltip="enable"><title>(1.63625,38)</title></rect><rect x="114" y="194.885" width="6" height="5.11509" stroke="black" stroke-width="1" fill="blue" tooltip="enable"><title>(1.72715,30)</title></rect><rect x="120" y="194.032" width="6" height="5.9676" stroke="black" stroke-width="1" fill="blue" tooltip="enable"><title>(1.81806,35)</title></rect><rect x="126" y="194.714" width="6" height="5.28559" stroke="black" stroke-width="1" fill="blue" tooltip="enable"><title>(1.90896,31)</title></rect><rect x="132" y="196.249" width="6" height="3.75107" stroke="black" stroke-width="1" fill="blue" tooltip="enable"><title>(1.99986,22)</title></rect><rect x="138" y="197.101" width="6" height="2.89855" stroke="black" stroke-width="1" fill="blue" tooltip="enable"><title>(2.09076,17)</title></rect><rect x="144" y="198.124" width="6" height="1.87553" stroke="black" stroke-width="1" fill="blue" tooltip="enable"><title>(2.18167,11)</title></rect><rect x="150" y="196.419" width="6" height="3.58056" stroke="black" stroke-width="1" fill="blue" tooltip="enable"><title>(2.27257,21)</title></rect><rect x="156" y="196.419" width="6" height="3.58056" stroke="black" stroke-width="1" fill="blue" tooltip="enable"><title>(2.36347,21)</title></rect><rect x="162" y="198.124" width="6" height="1.87553" stroke="black" stroke-width="1" fill="blue" tooltip="enable"><title>(2.45438,11)</title></rect><rect x="168" y="197.442" width="6" height="2.55754" stroke="black" stroke-width="1" fill="blue" tooltip="enable"><title>(2.54528,15)</title></rect><rect x="174" y="197.101" width="6" height="2.89855" stroke="black" stroke-width="1" fill="blue" tooltip="enable"><title>(2.63618,17)</title></rect><rect x="180" y="197.954" width="6" height="2.04604" stroke="black" stroke-width="1" fill="blue" tooltip="enable"><title>(2.72708,12)</title></rect><rect x="186" y="198.124" width="6" height="1.87553" stroke="black" stroke-width="1" fill="blue" tooltip="enable"><title>(2.81799,11)</title></rect><rect x="192" y="197.272" width="6" height="2.72805" stroke="black" stroke-width="1" fill="blue" tooltip="enable"><title>(2.90889,16)</title></rect><rect x="198" y="198.295" width="6" height="1.70503" stroke="black" stroke-width="1" fill="blue" tooltip="enable"><title>(2.99979,10)</title></rect><rect x="204" y="198.806" width="6" height="1.19352" stroke="black" stroke-width="1" fill="blue" tooltip="enable"><title>(3.0907,7)</title></rect><rect x="210" y="198.465" width="6" height="1.53453" stroke="black" stroke-width="1" fill="blue" tooltip="enable"><title>(3.1816,9)</title></rect><rect x="216" y="199.147" width="6" height="0.852515" stroke="black" stroke-width="1" fill="blue" tooltip="enable"><title>(3.2725,5)</title></rect><rect x="222" y="199.147" width="6" height="0.852515" stroke="black" stroke-width="1" fill="blue" tooltip="enable"><title>(3.3634,5)</title></rect><rect x="228" y="199.318" width="6" height="0.682012" stroke="black" stroke-width="1" fill="blue" tooltip="enable"><title>(3.45431,4)</title></rect><rect x="234" y="199.147" width="6" height="0.852515" stroke="black" stroke-width="1" fill="blue" tooltip="enable"><title>(3.54521,5)</title></rect><rect x="240" y="198.977" width="6" height="1.02302" stroke="black" stroke-width="1" fill="blue" tooltip="enable"><title>(3.63611,6)</title></rect><rect x="246" y="199.659" width="6" height="0.341006" stroke="black" stroke-width="1" fill="blue" tooltip="enable"><title>(3.72702,2)</title></rect><rect x="252" y="198.977" width="6" height="1.02302" stroke="black" stroke-width="1" fill="blue" tooltip="enable"><title>(3.81792,6)</title></rect><rect x="258" y="198.977" width="6" height="1.02302" stroke="black" stroke-width="1" fill="blue" tooltip="enable"><title>(3.90882,6)</title></rect><rect x="264" y="199.318" width="6" height="0.682012" stroke="black" stroke-width="1" fill="blue" tooltip="enable"><title>(3.99972,4)</title></rect><rect x="270" y="199.318" width="6" height="0.682012" stroke="black" stroke-width="1" fill="blue" tooltip="enable"><title>(4.09063,4)</title></rect><rect x="276" y="199.318" width="6" height="0.682012" stroke="black" stroke-width="1" fill="blue" tooltip="enable"><title>(4.18153,4)</title></rect><rect x="282" y="199.318" width="6" height="0.682012" stroke="black" stroke-width="1" fill="blue" tooltip="enable"><title>(4.27243,4)</title></rect><rect x="288" y="198.977" width="6" height="1.02302" stroke="black" stroke-width="1" fill="blue" tooltip="enable"><title>(4.36333,6)</title></rect><rect x="294" y="199.318" width="6" height="0.682012" stroke="black" stroke-width="1" fill="blue" tooltip="enable"><title>(4.45424,4)</title></rect><rect x="300" y="199.488" width="6" height="0.511509" stroke="black" stroke-width="1" fill="blue" tooltip="enable"><title>(4.54514,3)</title></rect><rect x="306" y="199.488" width="6" height="0.511509" stroke="black" stroke-width="1" fill="blue" tooltip="enable"><title>(4.63604,3)</title></rect><rect x="312" y="199.829" width="6" height="0.170503" stroke="black" stroke-width="1" fill="blue" tooltip="enable"><title>(4.72695,1)</title></rect><rect x="318" y="199.318" width="6" height="0.682012" stroke="black" stroke-width="1" fill="blue" tooltip="enable"><title>(4.81785,4)</title></rect><rect x="324" y="199.659" width="6" height="0.341006" stroke="black" stroke-width="1" fill="blue" tooltip="enable"><title>(4.90875,2)</title></rect><rect x="330" y="199.829" width="6" height="0.170503" stroke="black" stroke-width="1" fill="blue" tooltip="enable"><title>(4.99965,1)</title></rect><rect x="336" y="199.318" width="6" height="0.682012" stroke="black" stroke-width="1" fill="blue" tooltip="enable"><title>(5.09056,4)</title></rect><rect x="342" y="199.659" width="6" height="0.341006" stroke="black" stroke-width="1" fill="blue" tooltip="enable"><title>(5.18146,2)</title></rect><rect x="348" y="200" width="6" height="0" stroke="black" stroke-width="1" fill="blue" tooltip="enable"><title>(5.27236,0)</title></rect><rect x="354" y="199.659" width="6" height="0.341006" stroke="black" stroke-width="1" fill="blue" tooltip="enable"><title>(5.36327,2)</title></rect><rect x="360" y="199.318" width="6" height="0.682012" stroke="black" stroke-width="1" fill="blue" tooltip="enable"><title>(5.45417,4)</title></rect><rect x="366" y="199.488" width="6" height="0.511509" stroke="black" stroke-width="1" fill="blue" tooltip="enable"><title>(5.54507,3)</title></rect><rect x="372" y="199.829" width="6" height="0.170503" stroke="black" stroke-width="1" fill="blue" tooltip="enable"><title>(5.63597,1)</title></rect><rect x="378" y="199.659" width="6" height="0.341006" stroke="black" stroke-width="1" fill="blue" tooltip="enable"><title>(5.72688,2)</title></rect><rect x="384" y="200" width="6" height="0" stroke="black" stroke-width="1" fill="blue" tooltip="enable"><title>(5.81778,0)</title></rect><rect x="390" y="199.829" width="6" height="0.170503" stroke="black" stroke-width="1" fill="blue" tooltip="enable"><title>(5.90868,1)</title></rect><rect x="396" y="200" width="6" height="0" stroke="black" stroke-width="1" fill="blue" tooltip="enable"><title>(5.99959,0)</title></rect><rect x="402" y="199.829" width="6" height="0.170503" stroke="black" stroke-width="1" fill="blue" tooltip="enable"><title>(6.09049,1)</title></rect><rect x="408" y="200" width="6" height="0" stroke="black" stroke-width="1" fill="blue" tooltip="enable"><title>(6.18139,0)</title></rect><rect x="414" y="200" width="6" height="0" stroke="black" stroke-width="1" fill="blue" tooltip="enable"><title>(6.27229,0)</title></rect><rect x="420" y="199.488" width="6" height="0.511509" stroke="black" stroke-width="1" fill="blue" tooltip="enable"><title>(6.3632,3)</title></rect><rect x="426" y="199.488" width="6" height="0.511509" stroke="black" stroke-width="1" fill="blue" tooltip="enable"><title>(6.4541,3)</title></rect><rect x="432" y="199.829" width="6" height="0.170503" stroke="black" stroke-width="1" fill="blue" tooltip="enable"><title>(6.545,1)</title></rect><rect x="438" y="199.659" width="6" height="0.341006" stroke="black" stroke-width="1" fill="blue" tooltip="enable"><title>(6.6359,2)</title></rect><rect x="444" y="200" width="6" height="0" stroke="black" stroke-width="1" fill="blue" tooltip="enable"><title>(6.72681,0)</title></rect><rect x="450" y="200" width="6" height="0" stroke="black" stroke-width="1" fill="blue" tooltip="enable"><title>(6.81771,0)</title></rect><rect x="456" y="200" width="6" height="0" stroke="black" stroke-width="1" fill="blue" tooltip="enable"><title>(6.90861,0)</title></rect><rect x="462" y="199.488" width="6" height="0.511509" stroke="black" stroke-width="1" fill="blue" tooltip="enable"><title>(6.99952,3)</title></rect><rect x="468" y="200" width="6" height="0" stroke="black" stroke-width="1" fill="blue" tooltip="enable"><title>(7.09042,0)</title></rect><rect x="474" y="200" width="6" height="0" stroke="black" stroke-width="1" fill="blue" tooltip="enable"><title>(7.18132,0)</title></rect><rect x="480" y="200" width="6" height="0" stroke="black" stroke-width="1" fill="blue" tooltip="enable"><title>(7.27222,0)</title></rect><rect x="486" y="199.659" width="6" height="0.341006" stroke="black" stroke-width="1" fill="blue" tooltip="enable"><title>(7.36313,2)</title></rect><rect x="492" y="200" width="6" height="0" stroke="black" stroke-width="1" fill="blue" tooltip="enable"><title>(7.45403,0)</title></rect><rect x="498" y="200" width="6" height="0" stroke="black" stroke-width="1" fill="blue" tooltip="enable"><title>(7.54493,0)</title></rect><rect x="504" y="200" width="6" height="0" stroke="black" stroke-width="1" fill="blue" tooltip="enable"><title>(7.63584,0)</title></rect><rect x="510" y="199.829" width="6" height="0.170503" stroke="black" stroke-width="1" fill="blue" tooltip="enable"><title>(7.72674,1)</title></rect><rect x="516" y="200" width="6" height="0" stroke="black" stroke-width="1" fill="blue" tooltip="enable"><title>(7.81764,0)</title></rect><rect x="522" y="200" width="6" height="0" stroke="black" stroke-width="1" fill="blue" tooltip="enable"><title>(7.90854,0)</title></rect><rect x="528" y="200" width="6" height="0" stroke="black" stroke-width="1" fill="blue" tooltip="enable"><title>(7.99945,0)</title></rect><rect x="534" y="200" width="6" height="0" stroke="black" stroke-width="1" fill="blue" tooltip="enable"><title>(8.09035,0)</title></rect><rect x="540" y="200" width="6" height="0" stroke="black" stroke-width="1" fill="blue" tooltip="enable"><title>(8.18125,0)</title></rect><rect x="546" y="200" width="6" height="0" stroke="black" stroke-width="1" fill="blue" tooltip="enable"><title>(8.27216,0)</title></rect><rect x="552" y="200" width="6" height="0" stroke="black" stroke-width="1" fill="blue" tooltip="enable"><title>(8.36306,0)</title></rect><rect x="558" y="200" width="6" height="0" stroke="black" stroke-width="1" fill="blue" tooltip="enable"><title>(8.45396,0)</title></rect><rect x="564" y="200" width="6" height="0" stroke="black" stroke-width="1" fill="blue" tooltip="enable"><title>(8.54486,0)</title></rect><rect x="570" y="199.829" width="6" height="0.170503" stroke="black" stroke-width="1" fill="blue" tooltip="enable"><title>(8.63577,1)</title></rect><rect x="576" y="200" width="6" height="0" stroke="black" stroke-width="1" fill="blue" tooltip="enable"><title>(8.72667,0)</title></rect><rect x="582" y="200" width="6" height="0" stroke="black" stroke-width="1" fill="blue" tooltip="enable"><title>(8.81757,0)</title></rect><rect x="588" y="200" width="6" height="0" stroke="black" stroke-width="1" fill="blue" tooltip="enable"><title>(8.90847,0)</title></rect><rect x="594" y="199.488" width="6" height="0.511509" stroke="black" stroke-width="1" fill="blue" tooltip="enable"><title>(8.99938,3)</title></rect><text x="30" y="240" font-size="20" fill="black">0</text>
<text x="600" y="240" font-size="20" fill="black">9.09028</text>
<polyline points="0,220,600,220" stroke="black" stroke-width="1" fill="none"/>
<text x="720" y="20" font-size="20" fill="black">1173</text>
<text x="720" y="200" font-size="20" fill="black">0</text>
<polyline points="660,0,660,200" stroke="black" stroke-width="1" fill="none"/>
</svg>