<?xml version="1.0" standalone="yes"?>
<!-- SVG graphic -->
<svg xmlns='http://www.w3.org/2000/svg' xmlns:xlink='http://www.w3.org/1999/xlink'
 version="1.1">
<rect x="0" y="0" width="6" height="200" stroke="black" stroke-width="1" fill="blue" tooltip="enable"><title>(0,3465)</title></rect><rect x="6" y="100.26" width="6" height="99.7403" stroke="black" stroke-width="1" fill="blue" tooltip="enable"><title>(0.140973,1728)</title></rect><rect x="12" y="120.346" width="6" height="79.6537" stroke="black" stroke-width="1" fill="blue" tooltip="enable"><title>(0.281946,1380)</title></rect><rect x="18" y="136.104" width="6" height="63.8961" stroke="black" stroke-width="1" fill="blue" tooltip="enable"><title>(0.42292,1107)</title></rect><rect x="24" y="148.283" width="6" height="51.7172" stroke="black" stroke-width="1" fill="blue" tooltip="enable"><title>(0.563893,896)</title></rect><rect x="30" y="157.229" width="6" height="42.7706" stroke="black" stroke-width="1" fill="blue" tooltip="enable"><title>(0.704866,741)</title></rect><rect x="36" y="162.367" width="6" height="37.6335" stroke="black" stroke-width="1" fill="blue" tooltip="enable"><title>(0.845839,652)</title></rect><rect x="42" y="166.984" width="6" height="33.0159" stroke="black" stroke-width="1" fill="blue" tooltip="enable"><title>(0.986812,572)</title></rect><rect x="48" y="171.082" width="6" height="28.9177" stroke="black" stroke-width="1" fill="blue" tooltip="enable"><title>(1.12779,501)</title></rect><rect x="54" y="174.257" width="6" height="25.7431" stroke="black" stroke-width="1" fill="blue" tooltip="enable"><title>(1.26876,446)</title></rect><rect x="60" y="178.182" width="6" height="21.8182" stroke="black" stroke-width="1" fill="blue" tooltip="enable"><title>(1.40973,378)</title></rect><rect x="66" y="182.857" width="6" height="17.1429" stroke="black" stroke-width="1" fill="blue" tooltip="enable"><title>(1.55071,297)</title></rect><rect x="72" y="184.82" width="6" height="15.1804" stroke="black" stroke-width="1" fill="blue" tooltip="enable"><title>(1.69168,263)</title></rect><rect x="78" y="185.57" width="6" height="14.43" stroke="black" stroke-width="1" fill="blue" tooltip="enable"><title>(1.83265,250)</title></rect><rect x="84" y="186.898" width="6" height="13.1025" stroke="black" stroke-width="1" fill="blue" tooltip="enable"><title>(1.97362,227)</title></rect><rect x="90" y="189.495" width="6" height="10.5051" stroke="black" stroke-width="1" fill="blue" tooltip="enable"><title>(2.1146,182)</title></rect><rect x="96" y="190.13" width="6" height="9.87013" stroke="black" stroke-width="1" fill="blue" tooltip="enable"><title>(2.25557,171)</title></rect><rect x="102" y="190.361" width="6" height="9.63925" stroke="black" stroke-width="1" fill="blue" tooltip="enable"><title>(2.39654,167)</title></rect><rect x="108" y="192.9" width="6" height="7.09957" stroke="black" stroke-width="1" fill="blue" tooltip="enable"><title>(2.53752,123)</title></rect><rect x="114" y="193.651" width="6" height="6.34921" stroke="black" stroke-width="1" fill="blue" tooltip="enable"><title>(2.67849,110)</title></rect><rect x="120" y="195.209" width="6" height="4.79076" stroke="black" stroke-width="1" fill="blue" tooltip="enable"><title>(2.81946,83)</title></rect><rect x="126" y="194.459" width="6" height="5.54113" stroke="black" stroke-width="1" fill="blue" tooltip="enable"><title>(2.96044,96)</title></rect><rect x="132" y="194.228" width="6" height="5.77201" stroke="black" stroke-width="1" fill="blue" tooltip="enable"><title>(3.10141,100)</title></rect><rect x="138" y="196.768" width="6" height="3.23232" stroke="black" stroke-width="1" fill="blue" tooltip="enable"><title>(3.24238,56)</title></rect><rect x="144" y="196.248" width="6" height="3.7518" stroke="black" stroke-width="1" fill="blue" tooltip="enable"><title>(3.38336,65)</title></rect><rect x="150" y="196.421" width="6" height="3.57864" stroke="black" stroke-width="1" fill="blue" tooltip="enable"><title>(3.52433,62)</title></rect><rect x="156" y="197.114" width="6" height="2.886" stroke="black" stroke-width="1" fill="blue" tooltip="enable"><title>(3.6653,50)</title></rect><rect x="162" y="197.056" width="6" height="2.94372" stroke="black" stroke-width="1" fill="blue" tooltip="enable"><title>(3.80628,51)</title></rect><rect x="168" y="197.172" width="6" height="2.82828" stroke="black" stroke-width="1" fill="blue" tooltip="enable"><title>(3.94725,49)</title></rect><rect x="174" y="197.345" width="6" height="2.65512" stroke="black" stroke-width="1" fill="blue" tooltip="enable"><title>(4.08822,46)</title></rect><rect x="180" y="197.864" width="6" height="2.13564" stroke="black" stroke-width="1" fill="blue" tooltip="enable"><title>(4.2292,37)</title></rect><rect x="186" y="198.095" width="6" height="1.90476" stroke="black" stroke-width="1" fill="blue" tooltip="enable"><title>(4.37017,33)</title></rect><rect x="192" y="198.095" width="6" height="1.90476" stroke="black" stroke-width="1" fill="blue" tooltip="enable"><title>(4.51114,33)</title></rect><rect x="198" y="197.922" width="6" height="2.07792" stroke="black" stroke-width="1" fill="blue" tooltip="enable"><title>(4.65212,36)</title></rect><rect x="204" y="198.73" width="6" height="1.26984" stroke="black" stroke-width="1" fill="blue" tooltip="enable"><title>(4.79309,22)</title></rect><rect x="210" y="198.557" width="6" height="1.443" stroke="black" stroke-width="1" fill="blue" tooltip="enable"><title>(4.93406,25)</title></rect><rect x="216" y="198.73" width="6" height="1.26984" stroke="black" stroke-width="1" fill="blue" tooltip="enable"><title>(5.07504,22)</title></rect><rect x="222" y="199.25" width="6" height="0.750361" stroke="black" stroke-width="1" fill="blue" tooltip="enable"><title>(5.21601,13)</title></rect><rect x="228" y="199.192" width="6" height="0.808081" stroke="black" stroke-width="1" fill="blue" tooltip="enable"><title>(5.35698,14)</title></rect><rect x="234" y="199.019" width="6" height="0.981241" stroke="black" stroke-width="1" fill="blue" tooltip="enable"><title>(5.49795,17)</title></rect><rect x="240" y="198.672" width="6" height="1.32756" stroke="black" stroke-width="1" fill="blue" tooltip="enable"><title>(5.63893,23)</title></rect><rect x="246" y="199.307" width="6" height="0.692641" stroke="black" stroke-width="1" fill="blue" tooltip="enable"><title>(5.7799,12)</title></rect><rect x="252" y="199.134" width="6" height="0.865801" stroke="black" stroke-width="1" fill="blue" tooltip="enable"><title>(5.92087,15)</title></rect><rect x="258" y="199.365" width="6" height="0.634921" stroke="black" stroke-width="1" fill="blue" tooltip="enable"><title>(6.06185,11)</title></rect><rect x="264" y="199.25" width="6" height="0.750361" stroke="black" stroke-width="1" fill="blue" tooltip="enable"><title>(6.20282,13)</title></rect><rect x="270" y="199.365" width="6" height="0.634921" stroke="black" stroke-width="1" fill="blue" tooltip="enable"><title>(6.34379,11)</title></rect><rect x="276" y="199.538" width="6" height="0.46176" stroke="black" stroke-width="1" fill="blue" tooltip="enable"><title>(6.48477,8)</title></rect><rect x="282" y="199.538" width="6" height="0.46176" stroke="black" stroke-width="1" fill="blue" tooltip="enable"><title>(6.62574,8)</title></rect><rect x="288" y="199.538" width="6" height="0.46176" stroke="black" stroke-width="1" fill="blue" tooltip="enable"><title>(6.76671,8)</title></rect><rect x="294" y="199.596" width="6" height="0.40404" stroke="black" stroke-width="1" fill="blue" tooltip="enable"><title>(6.90769,7)</title></rect><rect x="300" y="199.769" width="6" height="0.23088" stroke="black" stroke-width="1" fill="blue" tooltip="enable"><title>(7.04866,4)</title></rect><rect x="306" y="199.481" width="6" height="0.519481" stroke="black" stroke-width="1" fill="blue" tooltip="enable"><title>(7.18963,9)</title></rect><rect x="312" y="199.769" width="6" height="0.23088" stroke="black" stroke-width="1" fill="blue" tooltip="enable"><title>(7.33061,4)</title></rect><rect x="318" y="199.711" width="6" height="0.2886" stroke="black" stroke-width="1" fill="blue" tooltip="enable"><title>(7.47158,5)</title></rect><rect x="324" y="199.827" width="6" height="0.17316" stroke="black" stroke-width="1" fill="blue" tooltip="enable"><title>(7.61255,3)</title></rect><rect x="330" y="199.885" width="6" height="0.11544" stroke="black" stroke-width="1" fill="blue" tooltip="enable"><title>(7.75353,2)</title></rect><rect x="336" y="199.942" width="6" height="0.0577201" stroke="black" stroke-width="1" fill="blue" tooltip="enable"><title>(7.8945,1)</title></rect><rect x="342" y="199.827" width="6" height="0.17316" stroke="black" stroke-width="1" fill="blue" tooltip="enable"><title>(8.03547,3)</title></rect><rect x="348" y="199.942" width="6" height="0.0577201" stroke="black" stroke-width="1" fill="blue" tooltip="enable"><title>(8.17645,1)</title></rect><rect x="354" y="199.769" width="6" height="0.23088" stroke="black" stroke-width="1" fill="blue" tooltip="enable"><title>(8.31742,4)</title></rect><rect x="360" y="199.827" width="6" height="0.17316" stroke="black" stroke-width="1" fill="blue" tooltip="enable"><title>(8.45839,3)</title></rect><rect x="366" y="200" width="6" height="0" stroke="black" stroke-width="1" fill="blue" tooltip="enable"><title>(8.59937,0)</title></rect><rect x="372" y="199.827" width="6" height="0.17316" stroke="black" stroke-width="1" fill="blue" tooltip="enable"><title>(8.74034,3)</title></rect><rect x="378" y="200" width="6" height="0" stroke="black" stroke-width="1" fill="blue" tooltip="enable"><title>(8.88131,0)</title></rect><rect x="384" y="199.942" width="6" height="0.0577201" stroke="black" stroke-width="1" fill="blue" tooltip="enable"><title>(9.02228,1)</title></rect><rect x="390" y="200" width="6" height="0" stroke="black" stroke-width="1" fill="blue" tooltip="enable"><title>(9.16326,0)</title></rect><rect x="396" y="200" width="6" height="0" stroke="black" stroke-width="1" fill="blue" tooltip="enable"><title>(9.30423,0)</title></rect><rect x="402" y="199.942" width="6" height="0.0577201" stroke="black" stroke-width="1" fill="blue" tooltip="enable"><title>(9.4452,1)</title></rect><rect x="408" y="200" width="6" height="0" stroke="black" stroke-width="1" fill="blue" tooltip="enable"><title>(9.58618,0)</title></rect><rect x="414" y="200" width="6" height="0" stroke="black" stroke-width="1" fill="blue" tooltip="enable"><title>(9.72715,0)</title></rect><rect x="420" y="200" width="6" height="0" stroke="black" stroke-width="1" fill="blue" tooltip="enable"><title>(9.86812,0)</title></rect><rect x="426" y="200" width="6" height="0" stroke="black" stroke-width="1" fill="blue" tooltip="enable"><title>(10.0091,0)</title></rect><rect x="432" y="200" width="6" height="0" stroke="black" stroke-width="1" fill="blue" tooltip="enable"><title>(10.1501,0)</title></rect><rect x="438" y="199.942" width="6" height="0.0577201" stroke="black" stroke-width="1" fill="blue" tooltip="enable"><title>(10.291,1)</title></rect><rect x="444" y="199.885" width="6" height="0.11544" stroke="black" stroke-width="1" fill="blue" tooltip="enable"><title>(10.432,2)</title></rect><rect x="450" y="200" width="6" height="0" stroke="black" stroke-width="1" fill="blue" tooltip="enable"><title>(10.573,0)</title></rect><rect x="456" y="200" width="6" height="0" stroke="black" stroke-width="1" fill="blue" tooltip="enable"><title>(10.714,0)</title></rect><rect x="462" y="200" width="6" height="0" stroke="black" stroke-width="1" fill="blue" tooltip="enable"><title>(10.8549,0)</title></rect><rect x="468" y="199.885" width="6" height="0.11544" stroke="black" stroke-width="1" fill="blue" tooltip="enable"><title>(10.9959,2)</title></rect><rect x="474" y="200" width="6" height="0" stroke="black" stroke-width="1" fill="blue" tooltip="enable"><title>(11.1369,0)</title></rect><rect x="480" y="200" width="6" height="0" stroke="black" stroke-width="1" fill="blue" tooltip="enable"><title>(11.2779,0)</title></rect><rect x="486" y="200" width="6" height="0" stroke="black" stroke-width="1" fill="blue" tooltip="enable"><title>(11.4188,0)</title></rect><rect x="492" y="199.942" width="6" height="0.0577201" stroke="black" stroke-width="1" fill="blue" tooltip="enable"><title>(11.5598,1)</title></rect><rect x="498" y="200" width="6" height="0" stroke="black" stroke-width="1" fill="blue" tooltip="enable"><title>(11.7008,0)</title></rect><rect x="504" y="200" width="6" height="0" stroke="black" stroke-width="1" fill="blue" tooltip="enable"><title>(11.8417,0)</title></rect><rect x="510" y="200" width="6" height="0" stroke="black" stroke-width="1" fill="blue" tooltip="enable"><title>(11.9827,0)</title></rect><rect x="516" y="200" width="6" height="0" stroke="black" stroke-width="1" fill="blue" tooltip="enable"><title>(12.1237,0)</title></rect><rect x="522" y="199.942" width="6" height="0.0577201" stroke="black" stroke-width="1" fill="blue" tooltip="enable"><title>(12.2647,1)</title></rect><rect x="528" y="200" width="6" height="0" stroke="black" stroke-width="1" fill="blue" tooltip="enable"><title>(12.4056,0)</title></rect><rect x="534" y="200" width="6" height="0" stroke="black" stroke-width="1" fill="blue" tooltip="enable"><title>(12.5466,0)</title></rect><rect x="540" y="200" width="6" height="0" stroke="black" stroke-width="1" fill="blue" tooltip="enable"><title>(12.6876,0)</title></rect><rect x="546" y="200" width="6" height="0" stroke="black" stroke-width="1" fill="blue" tooltip="enable"><title>(12.8286,0)</title></rect><rect x="552" y="200" width="6" height="0" stroke="black" stroke-width="1" fill="blue" tooltip="enable"><title>(12.9695,0)</title></rect><rect x="558" y="200" width="6" height="0" stroke="black" stroke-width="1" fill="blue" tooltip="enable"><title>(13.1105,0)</title></rect><rect x="564" y="200" width="6" height="0" stroke="black" stroke-width="1" fill="blue" tooltip="enable"><title>(13.2515,0)</title></rect><rect x="570" y="200" width="6" height="0" stroke="black" stroke-width="1" fill="blue" tooltip="enable"><title>(13.3925,0)</title></rect><rect x="576" y="200" width="6" height="0" stroke="black" stroke-width="1" fill="blue" tooltip="enable"><title>(13.5334,0)</title></rect><rect x="582" y="200" width="6" height="0" stroke="black" stroke-width="1" fill="blue" tooltip="enable"><title>(13.6744,0)</title></rect><rect x="588" y="200" width="6" height="0" stroke="black" stroke-width="1" fill="blue" tooltip="enable"><title>(13.8154,0)</title></rect><rect x="594" y="199.942" width="6" height="0.0577201" stroke="black" stroke-width="1" fill="blue" tooltip="enable"><title>(13.9563,1)</title></rect><text x="30" y="240" font-size="20" fill="black">0</text>
<text x="600" y="240" font-size="20" fill="black">14.0973</text>
<polyline points="0,220,600,220" stroke="black" stroke-width="1" fill="none"/>
<text x="720" y="20" font-size="20" fill="black">3465</text>
<text x="720" y="200" font-size="20" fill="black">0</text>
<polyline points="660,0,660,200" stroke="black" stroke-width="1" fill="none"/>
</svg>