<?xml version="1.0" standalone="yes"?>
<!-- SVG graphic -->
<svg xmlns='http://www.w3.org/2000/svg' xmlns:xlink='http://www.w3.org/1999/xlink'
 version="1.1">
<rect x="0" y="0" width="6" height="200" stroke="black" stroke-width="1" fill="blue" tooltip="enable"><title>(0,1225)</title></rect><rect x="6" y="84.5714" width="6" height="115.429" stroke="black" stroke-width="1" fill="blue" tooltip="enable"><title>(0.069946,707)</title></rect><rect x="12" y="106.122" width="6" height="93.8775" stroke="black" stroke-width="1" fill="blue" tooltip="enable"><title>(0.139892,575)</title></rect><rect x="18" y="127.184" width="6" height="72.8163" stroke="black" stroke-width="1" fill="blue" tooltip="enable"><title>(0.209838,446)</title></rect><rect x="24" y="146.776" width="6" height="53.2245" stroke="black" stroke-width="1" fill="blue" tooltip="enable"><title>(0.279784,326)</title></rect><rect x="30" y="157.061" width="6" height="42.9388" stroke="black" stroke-width="1" fill="blue" tooltip="enable"><title>(0.34973,263)</title></rect><rect x="36" y="163.918" width="6" height="36.0816" stroke="black" stroke-width="1" fill="blue" tooltip="enable"><title>(0.419676,221)</title></rect><rect x="42" y="172.898" width="6" height="27.102" stroke="black" stroke-width="1" fill="blue" tooltip="enable"><title>(0.489622,166)</title></rect><rect x="48" y="176" width="6" height="24" stroke="black" stroke-width="1" fill="blue" tooltip="enable"><title>(0.559568,147)</title></rect><rect x="54" y="182.204" width="6" height="17.7959" stroke="black" stroke-width="1" fill="blue" tooltip="enable"><title>(0.629514,109)</title></rect><rect x="60" y="184.327" width="6" height="15.6735" stroke="black" stroke-width="1" fill="blue" tooltip="enable"><title>(0.69946,96)</title></rect><rect x="66" y="187.918" width="6" height="12.0816" stroke="black" stroke-width="1" fill="blue" tooltip="enable"><title>(0.769406,74)</title></rect><rect x="72" y="189.878" width="6" height="10.1224" stroke="black" stroke-width="1" fill="blue" tooltip="enable"><title>(0.839352,62)</title></rect><rect x="78" y="191.184" width="6" height="8.81633" stroke="black" stroke-width="1" fill="blue" tooltip="enable"><title>(0.909298,54)</title></rect><rect x="84" y="193.796" width="6" height="6.20408" stroke="black" stroke-width="1" fill="blue" tooltip="enable"><title>(0.979244,38)</title></rect><rect x="90" y="194.449" width="6" height="5.55102" stroke="black" stroke-width="1" fill="blue" tooltip="enable"><title>(1.04919,34)</title></rect><rect x="96" y="195.265" width="6" height="4.73469" stroke="black" stroke-width="1" fill="blue" tooltip="enable"><title>(1.11914,29)</title></rect><rect x="102" y="194.612" width="6" height="5.38775" stroke="black" stroke-width="1" fill="blue" tooltip="enable"><title>(1.18908,33)</title></rect><rect x="108" y="195.102" width="6" height="4.89796" stroke="black" stroke-width="1" fill="blue" tooltip="enable"><title>(1.25903,30)</title></rect><rect x="114" y="197.224" width="6" height="2.77551" stroke="black" stroke-width="1" fill="blue" tooltip="enable"><title>(1.32897,17)</title></rect><rect x="120" y="197.224" width="6" height="2.77551" stroke="black" stroke-width="1" fill="blue" tooltip="enable"><title>(1.39892,17)</title></rect><rect x="126" y="198.041" width="6" height="1.95918" stroke="black" stroke-width="1" fill="blue" tooltip="enable"><title>(1.46887,12)</title></rect><rect x="132" y="197.388" width="6" height="2.61224" stroke="black" stroke-width="1" fill="blue" tooltip="enable"><title>(1.53881,16)</title></rect><rect x="138" y="198.204" width="6" height="1.79592" stroke="black" stroke-width="1" fill="blue" tooltip="enable"><title>(1.60876,11)</title></rect><rect x="144" y="198.694" width="6" height="1.30612" stroke="black" stroke-width="1" fill="blue" tooltip="enable"><title>(1.6787,8)</title></rect><rect x="150" y="199.02" width="6" height="0.979592" stroke="black" stroke-width="1" fill="blue" tooltip="enable"><title>(1.74865,6)</title></rect><rect x="156" y="199.02" width="6" height="0.979592" stroke="black" stroke-width="1" fill="blue" tooltip="enable"><title>(1.8186,6)</title></rect><rect x="162" y="199.02" width="6" height="0.979592" stroke="black" stroke-width="1" fill="blue" tooltip="enable"><title>(1.88854,6)</title></rect><rect x="168" y="198.694" width="6" height="1.30612" stroke="black" stroke-width="1" fill="blue" tooltip="enable"><title>(1.95849,8)</title></rect><rect x="174" y="199.02" width="6" height="0.979592" stroke="black" stroke-width="1" fill="blue" tooltip="enable"><title>(2.02843,6)</title></rect><rect x="180" y="198.857" width="6" height="1.14286" stroke="black" stroke-width="1" fill="blue" tooltip="enable"><title>(2.09838,7)</title></rect><rect x="186" y="199.184" width="6" height="0.816326" stroke="black" stroke-width="1" fill="blue" tooltip="enable"><title>(2.16833,5)</title></rect><rect x="192" y="199.347" width="6" height="0.653061" stroke="black" stroke-width="1" fill="blue" tooltip="enable"><title>(2.23827,4)</title></rect><rect x="198" y="199.184" width="6" height="0.816326" stroke="black" stroke-width="1" fill="blue" tooltip="enable"><title>(2.30822,5)</title></rect><rect x="204" y="199.347" width="6" height="0.653061" stroke="black" stroke-width="1" fill="blue" tooltip="enable"><title>(2.37816,4)</title></rect><rect x="210" y="199.673" width="6" height="0.326531" stroke="black" stroke-width="1" fill="blue" tooltip="enable"><title>(2.44811,2)</title></rect><rect x="216" y="199.51" width="6" height="0.489796" stroke="black" stroke-width="1" fill="blue" tooltip="enable"><title>(2.51806,3)</title></rect><rect x="222" y="199.02" width="6" height="0.979592" stroke="black" stroke-width="1" fill="blue" tooltip="enable"><title>(2.588,6)</title></rect><rect x="228" y="199.51" width="6" height="0.489796" stroke="black" stroke-width="1" fill="blue" tooltip="enable"><title>(2.65795,3)</title></rect><rect x="234" y="198.857" width="6" height="1.14286" stroke="black" stroke-width="1" fill="blue" tooltip="enable"><title>(2.72789,7)</title></rect><rect x="240" y="199.51" width="6" height="0.489796" stroke="black" stroke-width="1" fill="blue" tooltip="enable"><title>(2.79784,3)</title></rect><rect x="246" y="199.673" width="6" height="0.326531" stroke="black" stroke-width="1" fill="blue" tooltip="enable"><title>(2.86778,2)</title></rect><rect x="252" y="199.837" width="6" height="0.163265" stroke="black" stroke-width="1" fill="blue" tooltip="enable"><title>(2.93773,1)</title></rect><rect x="258" y="199.673" width="6" height="0.326531" stroke="black" stroke-width="1" fill="blue" tooltip="enable"><title>(3.00768,2)</title></rect><rect x="264" y="200" width="6" height="0" stroke="black" stroke-width="1" fill="blue" tooltip="enable"><title>(3.07762,0)</title></rect><rect x="270" y="199.184" width="6" height="0.816326" stroke="black" stroke-width="1" fill="blue" tooltip="enable"><title>(3.14757,5)</title></rect><rect x="276" y="199.837" width="6" height="0.163265" stroke="black" stroke-width="1" fill="blue" tooltip="enable"><title>(3.21751,1)</title></rect><rect x="282" y="199.347" width="6" height="0.653061" stroke="black" stroke-width="1" fill="blue" tooltip="enable"><title>(3.28746,4)</title></rect><rect x="288" y="199.673" width="6" height="0.326531" stroke="black" stroke-width="1" fill="blue" tooltip="enable"><title>(3.35741,2)</title></rect><rect x="294" y="199.673" width="6" height="0.326531" stroke="black" stroke-width="1" fill="blue" tooltip="enable"><title>(3.42735,2)</title></rect><rect x="300" y="199.837" width="6" height="0.163265" stroke="black" stroke-width="1" fill="blue" tooltip="enable"><title>(3.4973,1)</title></rect><rect x="306" y="199.673" width="6" height="0.326531" stroke="black" stroke-width="1" fill="blue" tooltip="enable"><title>(3.56724,2)</title></rect><rect x="312" y="199.837" width="6" height="0.163265" stroke="black" stroke-width="1" fill="blue" tooltip="enable"><title>(3.63719,1)</title></rect><rect x="318" y="199.673" width="6" height="0.326531" stroke="black" stroke-width="1" fill="blue" tooltip="enable"><title>(3.70714,2)</title></rect><rect x="324" y="200" width="6" height="0" stroke="black" stroke-width="1" fill="blue" tooltip="enable"><title>(3.77708,0)</title></rect><rect x="330" y="199.837" width="6" height="0.163265" stroke="black" stroke-width="1" fill="blue" tooltip="enable"><title>(3.84703,1)</title></rect><rect x="336" y="199.837" width="6" height="0.163265" stroke="black" stroke-width="1" fill="blue" tooltip="enable"><title>(3.91697,1)</title></rect><rect x="342" y="199.673" width="6" height="0.326531" stroke="black" stroke-width="1" fill="blue" tooltip="enable"><title>(3.98692,2)</title></rect><rect x="348" y="199.673" width="6" height="0.326531" stroke="black" stroke-width="1" fill="blue" tooltip="enable"><title>(4.05687,2)</title></rect><rect x="354" y="199.837" width="6" height="0.163265" stroke="black" stroke-width="1" fill="blue" tooltip="enable"><title>(4.12681,1)</title></rect><rect x="360" y="199.673" width="6" height="0.326531" stroke="black" stroke-width="1" fill="blue" tooltip="enable"><title>(4.19676,2)</title></rect><rect x="366" y="199.837" width="6" height="0.163265" stroke="black" stroke-width="1" fill="blue" tooltip="enable"><title>(4.2667,1)</title></rect><rect x="372" y="199.837" width="6" height="0.163265" stroke="black" stroke-width="1" fill="blue" tooltip="enable"><title>(4.33665,1)</title></rect><rect x="378" y="200" width="6" height="0" stroke="black" stroke-width="1" fill="blue" tooltip="enable"><title>(4.4066,0)</title></rect><rect x="384" y="199.837" width="6" height="0.163265" stroke="black" stroke-width="1" fill="blue" tooltip="enable"><title>(4.47654,1)</title></rect><rect x="390" y="200" width="6" height="0" stroke="black" stroke-width="1" fill="blue" tooltip="enable"><title>(4.54649,0)</title></rect><rect x="396" y="200" width="6" height="0" stroke="black" stroke-width="1" fill="blue" tooltip="enable"><title>(4.61643,0)</title></rect><rect x="402" y="200" width="6" height="0" stroke="black" stroke-width="1" fill="blue" tooltip="enable"><title>(4.68638,0)</title></rect><rect x="408" y="199.837" width="6" height="0.163265" stroke="black" stroke-width="1" fill="blue" tooltip="enable"><title>(4.75633,1)</title></rect><rect x="414" y="199.837" width="6" height="0.163265" stroke="black" stroke-width="1" fill="blue" tooltip="enable"><title>(4.82627,1)</title></rect><rect x="420" y="199.673" width="6" height="0.326531" stroke="black" stroke-width="1" fill="blue" tooltip="enable"><title>(4.89622,2)</title></rect><rect x="426" y="199.837" width="6" height="0.163265" stroke="black" stroke-width="1" fill="blue" tooltip="enable"><title>(4.96616,1)</title></rect><rect x="432" y="199.837" width="6" height="0.163265" stroke="black" stroke-width="1" fill="blue" tooltip="enable"><title>(5.03611,1)</title></rect><rect x="438" y="200" width="6" height="0" stroke="black" stroke-width="1" fill="blue" tooltip="enable"><title>(5.10606,0)</title></rect><rect x="444" y="200" width="6" height="0" stroke="black" stroke-width="1" fill="blue" tooltip="enable"><title>(5.176,0)</title></rect><rect x="450" y="200" width="6" height="0" stroke="black" stroke-width="1" fill="blue" tooltip="enable"><title>(5.24595,0)</title></rect><rect x="456" y="200" width="6" height="0" stroke="black" stroke-width="1" fill="blue" tooltip="enable"><title>(5.31589,0)</title></rect><rect x="462" y="200" width="6" height="0" stroke="black" stroke-width="1" fill="blue" tooltip="enable"><title>(5.38584,0)</title></rect><rect x="468" y="199.837" width="6" height="0.163265" stroke="black" stroke-width="1" fill="blue" tooltip="enable"><title>(5.45579,1)</title></rect><rect x="474" y="200" width="6" height="0" stroke="black" stroke-width="1" fill="blue" tooltip="enable"><title>(5.52573,0)</title></rect><rect x="480" y="200" width="6" height="0" stroke="black" stroke-width="1" fill="blue" tooltip="enable"><title>(5.59568,0)</title></rect><rect x="486" y="199.673" width="6" height="0.326531" stroke="black" stroke-width="1" fill="blue" tooltip="enable"><title>(5.66562,2)</title></rect><rect x="492" y="200" width="6" height="0" stroke="black" stroke-width="1" fill="blue" tooltip="enable"><title>(5.73557,0)</title></rect><rect x="498" y="200" width="6" height="0" stroke="black" stroke-width="1" fill="blue" tooltip="enable"><title>(5.80552,0)</title></rect><rect x="504" y="200" width="6" height="0" stroke="black" stroke-width="1" fill="blue" tooltip="enable"><title>(5.87546,0)</title></rect><rect x="510" y="200" width="6" height="0" stroke="black" stroke-width="1" fill="blue" tooltip="enable"><title>(5.94541,0)</title></rect><rect x="516" y="200" width="6" height="0" stroke="black" stroke-width="1" fill="blue" tooltip="enable"><title>(6.01535,0)</title></rect><rect x="522" y="200" width="6" height="0" stroke="black" stroke-width="1" fill="blue" tooltip="enable"><title>(6.0853,0)</title></rect><rect x="528" y="200" width="6" height="0" stroke="black" stroke-width="1" fill="blue" tooltip="enable"><title>(6.15525,0)</title></rect><rect x="534" y="200" width="6" height="0" stroke="black" stroke-width="1" fill="blue" tooltip="enable"><title>(6.22519,0)</title></rect><rect x="540" y="200" width="6" height="0" stroke="black" stroke-width="1" fill="blue" tooltip="enable"><title>(6.29514,0)</title></rect><rect x="546" y="200" width="6" height="0" stroke="black" stroke-width="1" fill="blue" tooltip="enable"><title>(6.36508,0)</title></rect><rect x="552" y="200" width="6" height="0" stroke="black" stroke-width="1" fill="blue" tooltip="enable"><title>(6.43503,0)</title></rect><rect x="558" y="200" width="6" height="0" stroke="black" stroke-width="1" fill="blue" tooltip="enable"><title>(6.50498,0)</title></rect><rect x="564" y="200" width="6" height="0" stroke="black" stroke-width="1" fill="blue" tooltip="enable"><title>(6.57492,0)</title></rect><rect x="570" y="200" width="6" height="0" stroke="black" stroke-width="1" fill="blue" tooltip="enable"><title>(6.64487,0)</title></rect><rect x="576" y="200" width="6" height="0" stroke="black" stroke-width="1" fill="blue" tooltip="enable"><title>(6.71481,0)</title></rect><rect x="582" y="200" width="6" height="0" stroke="black" stroke-width="1" fill="blue" tooltip="enable"><title>(6.78476,0)</title></rect><rect x="588" y="200" width="6" height="0" stroke="black" stroke-width="1" fill="blue" tooltip="enable"><title>(6.85471,0)</title></rect><rect x="594" y="199.837" width="6" height="0.163265" stroke="black" stroke-width="1" fill="blue" tooltip="enable"><title>(6.92465,1)</title></rect><text x="30" y="240" font-size="20" fill="black">0</text>
<text x="600" y="240" font-size="20" fill="black">6.9946</text>
<polyline points="0,220,600,220" stroke="black" stroke-width="1" fill="none"/>
<text x="720" y="20" font-size="20" fill="black">1225</text>
<text x="720" y="200" font-size="20" fill="black">0</text>
<polyline points="660,0,660,200" stroke="black" stroke-width="1" fill="none"/>
</svg>