<?xml version="1.0" standalone="yes"?>
<!-- SVG graphic -->
<svg xmlns='http://www.w3.org/2000/svg' xmlns:xlink='http://www.w3.org/1999/xlink'
 version="1.1">
<rect x="0" y="0" width="6" height="200" stroke="black" stroke-width="1" fill="blue" tooltip="enable"><title>(0,3220)</title></rect><rect x="6" y="101.801" width="6" height="98.1988" stroke="black" stroke-width="1" fill="blue" tooltip="enable"><title>(0.134378,1581)</title></rect><rect x="12" y="117.329" width="6" height="82.6708" stroke="black" stroke-width="1" fill="blue" tooltip="enable"><title>(0.268756,1331)</title></rect><rect x="18" y="136.273" width="6" height="63.7267" stroke="black" stroke-width="1" fill="blue" tooltip="enable"><title>(0.403134,1026)</title></rect><rect x="24" y="144.658" width="6" height="55.3416" stroke="black" stroke-width="1" fill="blue" tooltip="enable"><title>(0.537511,891)</title></rect><rect x="30" y="156.087" width="6" height="43.913" stroke="black" stroke-width="1" fill="blue" tooltip="enable"><title>(0.671889,707)</title></rect><rect x="36" y="159.689" width="6" height="40.3106" stroke="black" stroke-width="1" fill="blue" tooltip="enable"><title>(0.806267,649)</title></rect><rect x="42" y="165.528" width="6" height="34.472" stroke="black" stroke-width="1" fill="blue" tooltip="enable"><title>(0.940645,555)</title></rect><rect x="48" y="170.559" width="6" height="29.441" stroke="black" stroke-width="1" fill="blue" tooltip="enable"><title>(1.07502,474)</title></rect><rect x="54" y="176.087" width="6" height="23.913" stroke="black" stroke-width="1" fill="blue" tooltip="enable"><title>(1.2094,385)</title></rect><rect x="60" y="179.441" width="6" height="20.559" stroke="black" stroke-width="1" fill="blue" tooltip="enable"><title>(1.34378,331)</title></rect><rect x="66" y="182.422" width="6" height="17.5776" stroke="black" stroke-width="1" fill="blue" tooltip="enable"><title>(1.47816,283)</title></rect><rect x="72" y="184.534" width="6" height="15.4658" stroke="black" stroke-width="1" fill="blue" tooltip="enable"><title>(1.61253,249)</title></rect><rect x="78" y="185.466" width="6" height="14.5342" stroke="black" stroke-width="1" fill="blue" tooltip="enable"><title>(1.74691,234)</title></rect><rect x="84" y="186.708" width="6" height="13.2919" stroke="black" stroke-width="1" fill="blue" tooltip="enable"><title>(1.88129,214)</title></rect><rect x="90" y="190.373" width="6" height="9.62733" stroke="black" stroke-width="1" fill="blue" tooltip="enable"><title>(2.01567,155)</title></rect><rect x="96" y="190.621" width="6" height="9.37888" stroke="black" stroke-width="1" fill="blue" tooltip="enable"><title>(2.15005,151)</title></rect><rect x="102" y="192.174" width="6" height="7.82609" stroke="black" stroke-width="1" fill="blue" tooltip="enable"><title>(2.28442,126)</title></rect><rect x="108" y="192.174" width="6" height="7.82609" stroke="black" stroke-width="1" fill="blue" tooltip="enable"><title>(2.4188,126)</title></rect><rect x="114" y="193.727" width="6" height="6.27329" stroke="black" stroke-width="1" fill="blue" tooltip="enable"><title>(2.55318,101)</title></rect><rect x="120" y="193.665" width="6" height="6.3354" stroke="black" stroke-width="1" fill="blue" tooltip="enable"><title>(2.68756,102)</title></rect><rect x="126" y="194.224" width="6" height="5.7764" stroke="black" stroke-width="1" fill="blue" tooltip="enable"><title>(2.82193,93)</title></rect><rect x="132" y="194.783" width="6" height="5.21739" stroke="black" stroke-width="1" fill="blue" tooltip="enable"><title>(2.95631,84)</title></rect><rect x="138" y="195.901" width="6" height="4.09938" stroke="black" stroke-width="1" fill="blue" tooltip="enable"><title>(3.09069,66)</title></rect><rect x="144" y="196.211" width="6" height="3.78882" stroke="black" stroke-width="1" fill="blue" tooltip="enable"><title>(3.22507,61)</title></rect><rect x="150" y="196.335" width="6" height="3.6646" stroke="black" stroke-width="1" fill="blue" tooltip="enable"><title>(3.35945,59)</title></rect><rect x="156" y="196.273" width="6" height="3.72671" stroke="black" stroke-width="1" fill="blue" tooltip="enable"><title>(3.49382,60)</title></rect><rect x="162" y="196.77" width="6" height="3.22981" stroke="black" stroke-width="1" fill="blue" tooltip="enable"><title>(3.6282,52)</title></rect><rect x="168" y="197.578" width="6" height="2.42236" stroke="black" stroke-width="1" fill="blue" tooltip="enable"><title>(3.76258,39)</title></rect><rect x="174" y="197.019" width="6" height="2.98137" stroke="black" stroke-width="1" fill="blue" tooltip="enable"><title>(3.89696,48)</title></rect><rect x="180" y="197.64" width="6" height="2.36025" stroke="black" stroke-width="1" fill="blue" tooltip="enable"><title>(4.03134,38)</title></rect><rect x="186" y="198.075" width="6" height="1.92547" stroke="black" stroke-width="1" fill="blue" tooltip="enable"><title>(4.16571,31)</title></rect><rect x="192" y="197.578" width="6" height="2.42236" stroke="black" stroke-width="1" fill="blue" tooltip="enable"><title>(4.30009,39)</title></rect><rect x="198" y="198.571" width="6" height="1.42857" stroke="black" stroke-width="1" fill="blue" tooltip="enable"><title>(4.43447,23)</title></rect><rect x="204" y="198.447" width="6" height="1.5528" stroke="black" stroke-width="1" fill="blue" tooltip="enable"><title>(4.56885,25)</title></rect><rect x="210" y="198.758" width="6" height="1.24224" stroke="black" stroke-width="1" fill="blue" tooltip="enable"><title>(4.70323,20)</title></rect><rect x="216" y="198.571" width="6" height="1.42857" stroke="black" stroke-width="1" fill="blue" tooltip="enable"><title>(4.8376,23)</title></rect><rect x="222" y="199.006" width="6" height="0.993789" stroke="black" stroke-width="1" fill="blue" tooltip="enable"><title>(4.97198,16)</title></rect><rect x="228" y="199.006" width="6" height="0.993789" stroke="black" stroke-width="1" fill="blue" tooltip="enable"><title>(5.10636,16)</title></rect><rect x="234" y="199.13" width="6" height="0.869565" stroke="black" stroke-width="1" fill="blue" tooltip="enable"><title>(5.24074,14)</title></rect><rect x="240" y="199.317" width="6" height="0.68323" stroke="black" stroke-width="1" fill="blue" tooltip="enable"><title>(5.37511,11)</title></rect><rect x="246" y="199.441" width="6" height="0.559006" stroke="black" stroke-width="1" fill="blue" tooltip="enable"><title>(5.50949,9)</title></rect><rect x="252" y="199.193" width="6" height="0.807453" stroke="black" stroke-width="1" fill="blue" tooltip="enable"><title>(5.64387,13)</title></rect><rect x="258" y="199.379" width="6" height="0.621118" stroke="black" stroke-width="1" fill="blue" tooltip="enable"><title>(5.77825,10)</title></rect><rect x="264" y="199.317" width="6" height="0.68323" stroke="black" stroke-width="1" fill="blue" tooltip="enable"><title>(5.91263,11)</title></rect><rect x="270" y="199.317" width="6" height="0.68323" stroke="black" stroke-width="1" fill="blue" tooltip="enable"><title>(6.047,11)</title></rect><rect x="276" y="199.503" width="6" height="0.496894" stroke="black" stroke-width="1" fill="blue" tooltip="enable"><title>(6.18138,8)</title></rect><rect x="282" y="199.565" width="6" height="0.434783" stroke="black" stroke-width="1" fill="blue" tooltip="enable"><title>(6.31576,7)</title></rect><rect x="288" y="199.441" width="6" height="0.559006" stroke="black" stroke-width="1" fill="blue" tooltip="enable"><title>(6.45014,9)</title></rect><rect x="294" y="199.752" width="6" height="0.248447" stroke="black" stroke-width="1" fill="blue" tooltip="enable"><title>(6.58452,4)</title></rect><rect x="300" y="199.876" width="6" height="0.124224" stroke="black" stroke-width="1" fill="blue" tooltip="enable"><title>(6.71889,2)</title></rect><rect x="306" y="199.752" width="6" height="0.248447" stroke="black" stroke-width="1" fill="blue" tooltip="enable"><title>(6.85327,4)</title></rect><rect x="312" y="199.627" width="6" height="0.372671" stroke="black" stroke-width="1" fill="blue" tooltip="enable"><title>(6.98765,6)</title></rect><rect x="318" y="199.814" width="6" height="0.186335" stroke="black" stroke-width="1" fill="blue" tooltip="enable"><title>(7.12203,3)</title></rect><rect x="324" y="199.752" width="6" height="0.248447" stroke="black" stroke-width="1" fill="blue" tooltip="enable"><title>(7.2564,4)</title></rect><rect x="330" y="199.876" width="6" height="0.124224" stroke="black" stroke-width="1" fill="blue" tooltip="enable"><title>(7.39078,2)</title></rect><rect x="336" y="199.814" width="6" height="0.186335" stroke="black" stroke-width="1" fill="blue" tooltip="enable"><title>(7.52516,3)</title></rect><rect x="342" y="199.689" width="6" height="0.310559" stroke="black" stroke-width="1" fill="blue" tooltip="enable"><title>(7.65954,5)</title></rect><rect x="348" y="199.814" width="6" height="0.186335" stroke="black" stroke-width="1" fill="blue" tooltip="enable"><title>(7.79392,3)</title></rect><rect x="354" y="199.938" width="6" height="0.0621118" stroke="black" stroke-width="1" fill="blue" tooltip="enable"><title>(7.92829,1)</title></rect><rect x="360" y="199.876" width="6" height="0.124224" stroke="black" stroke-width="1" fill="blue" tooltip="enable"><title>(8.06267,2)</title></rect><rect x="366" y="199.938" width="6" height="0.0621118" stroke="black" stroke-width="1" fill="blue" tooltip="enable"><title>(8.19705,1)</title></rect><rect x="372" y="199.938" width="6" height="0.0621118" stroke="black" stroke-width="1" fill="blue" tooltip="enable"><title>(8.33143,1)</title></rect><rect x="378" y="200" width="6" height="0" stroke="black" stroke-width="1" fill="blue" tooltip="enable"><title>(8.46581,0)</title></rect><rect x="384" y="199.938" width="6" height="0.0621118" stroke="black" stroke-width="1" fill="blue" tooltip="enable"><title>(8.60018,1)</title></rect><rect x="390" y="200" width="6" height="0" stroke="black" stroke-width="1" fill="blue" tooltip="enable"><title>(8.73456,0)</title></rect><rect x="396" y="199.938" width="6" height="0.0621118" stroke="black" stroke-width="1" fill="blue" tooltip="enable"><title>(8.86894,1)</title></rect><rect x="402" y="200" width="6" height="0" stroke="black" stroke-width="1" fill="blue" tooltip="enable"><title>(9.00332,0)</title></rect><rect x="408" y="200" width="6" height="0" stroke="black" stroke-width="1" fill="blue" tooltip="enable"><title>(9.13769,0)</title></rect><rect x="414" y="199.938" width="6" height="0.0621118" stroke="black" stroke-width="1" fill="blue" tooltip="enable"><title>(9.27207,1)</title></rect><rect x="420" y="199.938" width="6" height="0.0621118" stroke="black" stroke-width="1" fill="blue" tooltip="enable"><title>(9.40645,1)</title></rect><rect x="426" y="199.938" width="6" height="0.0621118" stroke="black" stroke-width="1" fill="blue" tooltip="enable"><title>(9.54083,1)</title></rect><rect x="432" y="199.938" width="6" height="0.0621118" stroke="black" stroke-width="1" fill="blue" tooltip="enable"><title>(9.67521,1)</title></rect><rect x="438" y="200" width="6" height="0" stroke="black" stroke-width="1" fill="blue" tooltip="enable"><title>(9.80958,0)</title></rect><rect x="444" y="200" width="6" height="0" stroke="black" stroke-width="1" fill="blue" tooltip="enable"><title>(9.94396,0)</title></rect><rect x="450" y="200" width="6" height="0" stroke="black" stroke-width="1" fill="blue" tooltip="enable"><title>(10.0783,0)</title></rect><rect x="456" y="200" width="6" height="0" stroke="black" stroke-width="1" fill="blue" tooltip="enable"><title>(10.2127,0)</title></rect><rect x="462" y="200" width="6" height="0" stroke="black" stroke-width="1" fill="blue" tooltip="enable"><title>(10.3471,0)</title></rect><rect x="468" y="200" width="6" height="0" stroke="black" stroke-width="1" fill="blue" tooltip="enable"><title>(10.4815,0)</title></rect><rect x="474" y="200" width="6" height="0" stroke="black" stroke-width="1" fill="blue" tooltip="enable"><title>(10.6159,0)</title></rect><rect x="480" y="199.938" width="6" height="0.0621118" stroke="black" stroke-width="1" fill="blue" tooltip="enable"><title>(10.7502,1)</title></rect><rect x="486" y="200" width="6" height="0" stroke="black" stroke-width="1" fill="blue" tooltip="enable"><title>(10.8846,0)</title></rect><rect x="492" y="200" width="6" height="0" stroke="black" stroke-width="1" fill="blue" tooltip="enable"><title>(11.019,0)</title></rect><rect x="498" y="200" width="6" height="0" stroke="black" stroke-width="1" fill="blue" tooltip="enable"><title>(11.1534,0)</title></rect><rect x="504" y="200" width="6" height="0" stroke="black" stroke-width="1" fill="blue" tooltip="enable"><title>(11.2877,0)</title></rect><rect x="510" y="200" width="6" height="0" stroke="black" stroke-width="1" fill="blue" tooltip="enable"><title>(11.4221,0)</title></rect><rect x="516" y="200" width="6" height="0" stroke="black" stroke-width="1" fill="blue" tooltip="enable"><title>(11.5565,0)</title></rect><rect x="522" y="200" width="6" height="0" stroke="black" stroke-width="1" fill="blue" tooltip="enable"><title>(11.6909,0)</title></rect><rect x="528" y="200" width="6" height="0" stroke="black" stroke-width="1" fill="blue" tooltip="enable"><title>(11.8253,0)</title></rect><rect x="534" y="200" width="6" height="0" stroke="black" stroke-width="1" fill="blue" tooltip="enable"><title>(11.9596,0)</title></rect><rect x="540" y="200" width="6" height="0" stroke="black" stroke-width="1" fill="blue" tooltip="enable"><title>(12.094,0)</title></rect><rect x="546" y="200" width="6" height="0" stroke="black" stroke-width="1" fill="blue" tooltip="enable"><title>(12.2284,0)</title></rect><rect x="552" y="200" width="6" height="0" stroke="black" stroke-width="1" fill="blue" tooltip="enable"><title>(12.3628,0)</title></rect><rect x="558" y="200" width="6" height="0" stroke="black" stroke-width="1" fill="blue" tooltip="enable"><title>(12.4971,0)</title></rect><rect x="564" y="200" width="6" height="0" stroke="black" stroke-width="1" fill="blue" tooltip="enable"><title>(12.6315,0)</title></rect><rect x="570" y="200" width="6" height="0" stroke="black" stroke-width="1" fill="blue" tooltip="enable"><title>(12.7659,0)</title></rect><rect x="576" y="200" width="6" height="0" stroke="black" stroke-width="1" fill="blue" tooltip="enable"><title>(12.9003,0)</title></rect><rect x="582" y="200" width="6" height="0" stroke="black" stroke-width="1" fill="blue" tooltip="enable"><title>(13.0347,0)</title></rect><rect x="588" y="200" width="6" height="0" stroke="black" stroke-width="1" fill="blue" tooltip="enable"><title>(13.169,0)</title></rect><rect x="594" y="199.938" width="6" height="0.0621118" stroke="black" stroke-width="1" fill="blue" tooltip="enable"><title>(13.3034,1)</title></rect><text x="30" y="240" font-size="20" fill="black">0</text>
<text x="600" y="240" font-size="20" fill="black">13.4378</text>
<polyline points="0,220,600,220" stroke="black" stroke-width="1" fill="none"/>
<text x="720" y="20" font-size="20" fill="black">3220</text>
<text x="720" y="200" font-size="20" fill="black">0</text>
<polyline points="660,0,660,200" stroke="black" stroke-width="1" fill="none"/>
</svg>