<?xml version="1.0" standalone="yes"?>
<!-- SVG graphic -->
<svg xmlns='http://www.w3.org/2000/svg' xmlns:xlink='http://www.w3.org/1999/xlink'
 version="1.1">
<rect x="0" y="0" width="6" height="200" stroke="black" stroke-width="1" fill="blue" tooltip="enable"><title>(0,13753)</title></rect><rect x="6" y="94.8157" width="6" height="105.184" stroke="black" stroke-width="1" fill="blue" tooltip="enable"><title>(0.146907,7233)</title></rect><rect x="12" y="118.403" width="6" height="81.5967" stroke="black" stroke-width="1" fill="blue" tooltip="enable"><title>(0.293814,5611)</title></rect><rect x="18" y="134.807" width="6" height="65.193" stroke="black" stroke-width="1" fill="blue" tooltip="enable"><title>(0.440721,4483)</title></rect><rect x="24" y="148.913" width="6" height="51.087" stroke="black" stroke-width="1" fill="blue" tooltip="enable"><title>(0.587628,3513)</title></rect><rect x="30" y="158.555" width="6" height="41.4455" stroke="black" stroke-width="1" fill="blue" tooltip="enable"><title>(0.734536,2850)</title></rect><rect x="36" y="166.306" width="6" height="33.6945" stroke="black" stroke-width="1" fill="blue" tooltip="enable"><title>(0.881443,2317)</title></rect><rect x="42" y="171.686" width="6" height="28.3138" stroke="black" stroke-width="1" fill="blue" tooltip="enable"><title>(1.02835,1947)</title></rect><rect x="48" y="175.787" width="6" height="24.2129" stroke="black" stroke-width="1" fill="blue" tooltip="enable"><title>(1.17526,1665)</title></rect><rect x="54" y="179.786" width="6" height="20.2138" stroke="black" stroke-width="1" fill="blue" tooltip="enable"><title>(1.32216,1390)</title></rect><rect x="60" y="183.407" width="6" height="16.5927" stroke="black" stroke-width="1" fill="blue" tooltip="enable"><title>(1.46907,1141)</title></rect><rect x="66" y="186.956" width="6" height="13.0444" stroke="black" stroke-width="1" fill="blue" tooltip="enable"><title>(1.61598,897)</title></rect><rect x="72" y="188.802" width="6" height="11.1976" stroke="black" stroke-width="1" fill="blue" tooltip="enable"><title>(1.76289,770)</title></rect><rect x="78" y="188.919" width="6" height="11.0812" stroke="black" stroke-width="1" fill="blue" tooltip="enable"><title>(1.90979,762)</title></rect><rect x="84" y="191.057" width="6" height="8.9435" stroke="black" stroke-width="1" fill="blue" tooltip="enable"><title>(2.0567,615)</title></rect><rect x="90" y="192.002" width="6" height="7.99825" stroke="black" stroke-width="1" fill="blue" tooltip="enable"><title>(2.20361,550)</title></rect><rect x="96" y="193.398" width="6" height="6.6022" stroke="black" stroke-width="1" fill="blue" tooltip="enable"><title>(2.35051,454)</title></rect><rect x="102" y="193.834" width="6" height="6.16593" stroke="black" stroke-width="1" fill="blue" tooltip="enable"><title>(2.49742,424)</title></rect><rect x="108" y="193.907" width="6" height="6.09322" stroke="black" stroke-width="1" fill="blue" tooltip="enable"><title>(2.64433,419)</title></rect><rect x="114" y="195.187" width="6" height="4.8135" stroke="black" stroke-width="1" fill="blue" tooltip="enable"><title>(2.79124,331)</title></rect><rect x="120" y="195.39" width="6" height="4.6099" stroke="black" stroke-width="1" fill="blue" tooltip="enable"><title>(2.93814,317)</title></rect><rect x="126" y="196.35" width="6" height="3.65011" stroke="black" stroke-width="1" fill="blue" tooltip="enable"><title>(3.08505,251)</title></rect><rect x="132" y="196.786" width="6" height="3.21384" stroke="black" stroke-width="1" fill="blue" tooltip="enable"><title>(3.23196,221)</title></rect><rect x="138" y="196.902" width="6" height="3.09751" stroke="black" stroke-width="1" fill="blue" tooltip="enable"><title>(3.37886,213)</title></rect><rect x="144" y="197.106" width="6" height="2.89391" stroke="black" stroke-width="1" fill="blue" tooltip="enable"><title>(3.52577,199)</title></rect><rect x="150" y="197.455" width="6" height="2.5449" stroke="black" stroke-width="1" fill="blue" tooltip="enable"><title>(3.67268,175)</title></rect><rect x="156" y="197.513" width="6" height="2.48673" stroke="black" stroke-width="1" fill="blue" tooltip="enable"><title>(3.81959,171)</title></rect><rect x="162" y="197.979" width="6" height="2.02138" stroke="black" stroke-width="1" fill="blue" tooltip="enable"><title>(3.96649,139)</title></rect><rect x="168" y="198.124" width="6" height="1.87595" stroke="black" stroke-width="1" fill="blue" tooltip="enable"><title>(4.1134,129)</title></rect><rect x="174" y="198.386" width="6" height="1.61419" stroke="black" stroke-width="1" fill="blue" tooltip="enable"><title>(4.26031,111)</title></rect><rect x="180" y="198.444" width="6" height="1.55602" stroke="black" stroke-width="1" fill="blue" tooltip="enable"><title>(4.40721,107)</title></rect><rect x="186" y="198.575" width="6" height="1.42514" stroke="black" stroke-width="1" fill="blue" tooltip="enable"><title>(4.55412,98)</title></rect><rect x="192" y="198.982" width="6" height="1.01796" stroke="black" stroke-width="1" fill="blue" tooltip="enable"><title>(4.70103,70)</title></rect><rect x="198" y="198.778" width="6" height="1.22155" stroke="black" stroke-width="1" fill="blue" tooltip="enable"><title>(4.84794,84)</title></rect><rect x="204" y="198.982" width="6" height="1.01796" stroke="black" stroke-width="1" fill="blue" tooltip="enable"><title>(4.99484,70)</title></rect><rect x="210" y="199.055" width="6" height="0.945248" stroke="black" stroke-width="1" fill="blue" tooltip="enable"><title>(5.14175,65)</title></rect><rect x="216" y="199.127" width="6" height="0.872537" stroke="black" stroke-width="1" fill="blue" tooltip="enable"><title>(5.28866,60)</title></rect><rect x="222" y="199.186" width="6" height="0.814368" stroke="black" stroke-width="1" fill="blue" tooltip="enable"><title>(5.43556,56)</title></rect><rect x="228" y="199.215" width="6" height="0.785283" stroke="black" stroke-width="1" fill="blue" tooltip="enable"><title>(5.58247,54)</title></rect><rect x="234" y="199.476" width="6" height="0.523522" stroke="black" stroke-width="1" fill="blue" tooltip="enable"><title>(5.72938,36)</title></rect><rect x="240" y="199.346" width="6" height="0.654403" stroke="black" stroke-width="1" fill="blue" tooltip="enable"><title>(5.87629,45)</title></rect><rect x="246" y="199.389" width="6" height="0.610776" stroke="black" stroke-width="1" fill="blue" tooltip="enable"><title>(6.02319,42)</title></rect><rect x="252" y="199.636" width="6" height="0.363557" stroke="black" stroke-width="1" fill="blue" tooltip="enable"><title>(6.1701,25)</title></rect><rect x="258" y="199.622" width="6" height="0.378099" stroke="black" stroke-width="1" fill="blue" tooltip="enable"><title>(6.31701,26)</title></rect><rect x="264" y="199.738" width="6" height="0.261761" stroke="black" stroke-width="1" fill="blue" tooltip="enable"><title>(6.46391,18)</title></rect><rect x="270" y="199.593" width="6" height="0.407184" stroke="black" stroke-width="1" fill="blue" tooltip="enable"><title>(6.61082,28)</title></rect><rect x="276" y="199.636" width="6" height="0.363557" stroke="black" stroke-width="1" fill="blue" tooltip="enable"><title>(6.75773,25)</title></rect><rect x="282" y="199.724" width="6" height="0.276303" stroke="black" stroke-width="1" fill="blue" tooltip="enable"><title>(6.90463,19)</title></rect><rect x="288" y="199.811" width="6" height="0.18905" stroke="black" stroke-width="1" fill="blue" tooltip="enable"><title>(7.05154,13)</title></rect><rect x="294" y="199.738" width="6" height="0.261761" stroke="black" stroke-width="1" fill="blue" tooltip="enable"><title>(7.19845,18)</title></rect><rect x="300" y="199.825" width="6" height="0.174507" stroke="black" stroke-width="1" fill="blue" tooltip="enable"><title>(7.34536,12)</title></rect><rect x="306" y="199.782" width="6" height="0.218134" stroke="black" stroke-width="1" fill="blue" tooltip="enable"><title>(7.49226,15)</title></rect><rect x="312" y="199.927" width="6" height="0.0727114" stroke="black" stroke-width="1" fill="blue" tooltip="enable"><title>(7.63917,5)</title></rect><rect x="318" y="199.913" width="6" height="0.0872537" stroke="black" stroke-width="1" fill="blue" tooltip="enable"><title>(7.78608,6)</title></rect><rect x="324" y="199.913" width="6" height="0.0872537" stroke="black" stroke-width="1" fill="blue" tooltip="enable"><title>(7.93299,6)</title></rect><rect x="330" y="199.985" width="6" height="0.0145423" stroke="black" stroke-width="1" fill="blue" tooltip="enable"><title>(8.07989,1)</title></rect><rect x="336" y="199.942" width="6" height="0.0581691" stroke="black" stroke-width="1" fill="blue" tooltip="enable"><title>(8.2268,4)</title></rect><rect x="342" y="200" width="6" height="0" stroke="black" stroke-width="1" fill="blue" tooltip="enable"><title>(8.37371,0)</title></rect><rect x="348" y="199.942" width="6" height="0.0581691" stroke="black" stroke-width="1" fill="blue" tooltip="enable"><title>(8.52061,4)</title></rect><rect x="354" y="199.956" width="6" height="0.0436268" stroke="black" stroke-width="1" fill="blue" tooltip="enable"><title>(8.66752,3)</title></rect><rect x="360" y="199.985" width="6" height="0.0145423" stroke="black" stroke-width="1" fill="blue" tooltip="enable"><title>(8.81443,1)</title></rect><rect x="366" y="199.985" width="6" height="0.0145423" stroke="black" stroke-width="1" fill="blue" tooltip="enable"><title>(8.96134,1)</title></rect><rect x="372" y="199.985" width="6" height="0.0145423" stroke="black" stroke-width="1" fill="blue" tooltip="enable"><title>(9.10824,1)</title></rect><rect x="378" y="199.956" width="6" height="0.0436268" stroke="black" stroke-width="1" fill="blue" tooltip="enable"><title>(9.25515,3)</title></rect><rect x="384" y="200" width="6" height="0" stroke="black" stroke-width="1" fill="blue" tooltip="enable"><title>(9.40206,0)</title></rect><rect x="390" y="200" width="6" height="0" stroke="black" stroke-width="1" fill="blue" tooltip="enable"><title>(9.54896,0)</title></rect><rect x="396" y="199.971" width="6" height="0.0290846" stroke="black" stroke-width="1" fill="blue" tooltip="enable"><title>(9.69587,2)</title></rect><rect x="402" y="199.985" width="6" height="0.0145423" stroke="black" stroke-width="1" fill="blue" tooltip="enable"><title>(9.84278,1)</title></rect><rect x="408" y="199.985" width="6" height="0.0145423" stroke="black" stroke-width="1" fill="blue" tooltip="enable"><title>(9.98969,1)</title></rect><rect x="414" y="200" width="6" height="0" stroke="black" stroke-width="1" fill="blue" tooltip="enable"><title>(10.1366,0)</title></rect><rect x="420" y="199.985" width="6" height="0.0145423" stroke="black" stroke-width="1" fill="blue" tooltip="enable"><title>(10.2835,1)</title></rect><rect x="426" y="200" width="6" height="0" stroke="black" stroke-width="1" fill="blue" tooltip="enable"><title>(10.4304,0)</title></rect><rect x="432" y="200" width="6" height="0" stroke="black" stroke-width="1" fill="blue" tooltip="enable"><title>(10.5773,0)</title></rect><rect x="438" y="199.971" width="6" height="0.0290846" stroke="black" stroke-width="1" fill="blue" tooltip="enable"><title>(10.7242,2)</title></rect><rect x="444" y="200" width="6" height="0" stroke="black" stroke-width="1" fill="blue" tooltip="enable"><title>(10.8711,0)</title></rect><rect x="450" y="200" width="6" height="0" stroke="black" stroke-width="1" fill="blue" tooltip="enable"><title>(11.018,0)</title></rect><rect x="456" y="200" width="6" height="0" stroke="black" stroke-width="1" fill="blue" tooltip="enable"><title>(11.1649,0)</title></rect><rect x="462" y="200" width="6" height="0" stroke="black" stroke-width="1" fill="blue" tooltip="enable"><title>(11.3118,0)</title></rect><rect x="468" y="199.985" width="6" height="0.0145423" stroke="black" stroke-width="1" fill="blue" tooltip="enable"><title>(11.4588,1)</title></rect><rect x="474" y="200" width="6" height="0" stroke="black" stroke-width="1" fill="blue" tooltip="enable"><title>(11.6057,0)</title></rect><rect x="480" y="200" width="6" height="0" stroke="black" stroke-width="1" fill="blue" tooltip="enable"><title>(11.7526,0)</title></rect><rect x="486" y="200" width="6" height="0" stroke="black" stroke-width="1" fill="blue" tooltip="enable"><title>(11.8995,0)</title></rect><rect x="492" y="200" width="6" height="0" stroke="black" stroke-width="1" fill="blue" tooltip="enable"><title>(12.0464,0)</title></rect><rect x="498" y="200" width="6" height="0" stroke="black" stroke-width="1" fill="blue" tooltip="enable"><title>(12.1933,0)</title></rect><rect x="504" y="200" width="6" height="0" stroke="black" stroke-width="1" fill="blue" tooltip="enable"><title>(12.3402,0)</title></rect><rect x="510" y="200" width="6" height="0" stroke="black" stroke-width="1" fill="blue" tooltip="enable"><title>(12.4871,0)</title></rect><rect x="516" y="200" width="6" height="0" stroke="black" stroke-width="1" fill="blue" tooltip="enable"><title>(12.634,0)</title></rect><rect x="522" y="200" width="6" height="0" stroke="black" stroke-width="1" fill="blue" tooltip="enable"><title>(12.7809,0)</title></rect><rect x="528" y="199.971" width="6" height="0.0290846" stroke="black" stroke-width="1" fill="blue" tooltip="enable"><title>(12.9278,2)</title></rect><rect x="534" y="199.985" width="6" height="0.0145423" stroke="black" stroke-width="1" fill="blue" tooltip="enable"><title>(13.0747,1)</title></rect><rect x="540" y="200" width="6" height="0" stroke="black" stroke-width="1" fill="blue" tooltip="enable"><title>(13.2216,0)</title></rect><rect x="546" y="200" width="6" height="0" stroke="black" stroke-width="1" fill="blue" tooltip="enable"><title>(13.3685,0)</title></rect><rect x="552" y="200" width="6" height="0" stroke="black" stroke-width="1" fill="blue" tooltip="enable"><title>(13.5155,0)</title></rect><rect x="558" y="200" width="6" height="0" stroke="black" stroke-width="1" fill="blue" tooltip="enable"><title>(13.6624,0)</title></rect><rect x="564" y="200" width="6" height="0" stroke="black" stroke-width="1" fill="blue" tooltip="enable"><title>(13.8093,0)</title></rect><rect x="570" y="200" width="6" height="0" stroke="black" stroke-width="1" fill="blue" tooltip="enable"><title>(13.9562,0)</title></rect><rect x="576" y="200" width="6" height="0" stroke="black" stroke-width="1" fill="blue" tooltip="enable"><title>(14.1031,0)</title></rect><rect x="582" y="200" width="6" height="0" stroke="black" stroke-width="1" fill="blue" tooltip="enable"><title>(14.25,0)</title></rect><rect x="588" y="200" width="6" height="0" stroke="black" stroke-width="1" fill="blue" tooltip="enable"><title>(14.3969,0)</title></rect><rect x="594" y="199.985" width="6" height="0.0145423" stroke="black" stroke-width="1" fill="blue" tooltip="enable"><title>(14.5438,1)</title></rect><text x="30" y="240" font-size="20" fill="black">0</text>
<text x="600" y="240" font-size="20" fill="black">14.6907</text>
<polyline points="0,220,600,220" stroke="black" stroke-width="1" fill="none"/>
<text x="720" y="20" font-size="20" fill="black">13753</text>
<text x="720" y="200" font-size="20" fill="black">0</text>
<polyline points="660,0,660,200" stroke="black" stroke-width="1" fill="none"/>
</svg>