<?xml version="1.0" standalone="yes"?>
<!-- SVG graphic -->
<svg xmlns='http://www.w3.org/2000/svg' xmlns:xlink='http://www.w3.org/1999/xlink'
 version="1.1">
<rect x="0" y="-1.52588e-05" width="6" height="200" stroke="black" stroke-width="1" fill="blue" tooltip="enable"><title>(0,12161)</title></rect><rect x="6" y="94.7619" width="6" height="105.238" stroke="black" stroke-width="1" fill="blue" tooltip="enable"><title>(0.129054,6399)</title></rect><rect x="12" y="115.402" width="6" height="84.5983" stroke="black" stroke-width="1" fill="blue" tooltip="enable"><title>(0.258108,5144)</title></rect><rect x="18" y="129.776" width="6" height="70.2245" stroke="black" stroke-width="1" fill="blue" tooltip="enable"><title>(0.387162,4270)</title></rect><rect x="24" y="142.521" width="6" height="57.4788" stroke="black" stroke-width="1" fill="blue" tooltip="enable"><title>(0.516216,3495)</title></rect><rect x="30" y="153.112" width="6" height="46.8876" stroke="black" stroke-width="1" fill="blue" tooltip="enable"><title>(0.64527,2851)</title></rect><rect x="36" y="160.086" width="6" height="39.9145" stroke="black" stroke-width="1" fill="blue" tooltip="enable"><title>(0.774324,2427)</title></rect><rect x="42" y="165.217" width="6" height="34.7833" stroke="black" stroke-width="1" fill="blue" tooltip="enable"><title>(0.903378,2115)</title></rect><rect x="48" y="171.137" width="6" height="28.8628" stroke="black" stroke-width="1" fill="blue" tooltip="enable"><title>(1.03243,1755)</title></rect><rect x="54" y="176.038" width="6" height="23.9618" stroke="black" stroke-width="1" fill="blue" tooltip="enable"><title>(1.16149,1457)</title></rect><rect x="60" y="179.114" width="6" height="20.8864" stroke="black" stroke-width="1" fill="blue" tooltip="enable"><title>(1.29054,1270)</title></rect><rect x="66" y="182.37" width="6" height="17.6301" stroke="black" stroke-width="1" fill="blue" tooltip="enable"><title>(1.41959,1072)</title></rect><rect x="72" y="184.952" width="6" height="15.0481" stroke="black" stroke-width="1" fill="blue" tooltip="enable"><title>(1.54865,915)</title></rect><rect x="78" y="186.3" width="6" height="13.6995" stroke="black" stroke-width="1" fill="blue" tooltip="enable"><title>(1.6777,833)</title></rect><rect x="84" y="188.356" width="6" height="11.6438" stroke="black" stroke-width="1" fill="blue" tooltip="enable"><title>(1.80676,708)</title></rect><rect x="90" y="188.932" width="6" height="11.0682" stroke="black" stroke-width="1" fill="blue" tooltip="enable"><title>(1.93581,673)</title></rect><rect x="96" y="190.412" width="6" height="9.58803" stroke="black" stroke-width="1" fill="blue" tooltip="enable"><title>(2.06486,583)</title></rect><rect x="102" y="191.053" width="6" height="8.94663" stroke="black" stroke-width="1" fill="blue" tooltip="enable"><title>(2.19392,544)</title></rect><rect x="108" y="192.599" width="6" height="7.40071" stroke="black" stroke-width="1" fill="blue" tooltip="enable"><title>(2.32297,450)</title></rect><rect x="114" y="193.652" width="6" height="6.34816" stroke="black" stroke-width="1" fill="blue" tooltip="enable"><title>(2.45203,386)</title></rect><rect x="120" y="194.244" width="6" height="5.75611" stroke="black" stroke-width="1" fill="blue" tooltip="enable"><title>(2.58108,350)</title></rect><rect x="126" y="194.671" width="6" height="5.32851" stroke="black" stroke-width="1" fill="blue" tooltip="enable"><title>(2.71013,324)</title></rect><rect x="132" y="195.181" width="6" height="4.81868" stroke="black" stroke-width="1" fill="blue" tooltip="enable"><title>(2.83919,293)</title></rect><rect x="138" y="195.412" width="6" height="4.58844" stroke="black" stroke-width="1" fill="blue" tooltip="enable"><title>(2.96824,279)</title></rect><rect x="144" y="195.823" width="6" height="4.17729" stroke="black" stroke-width="1" fill="blue" tooltip="enable"><title>(3.0973,254)</title></rect><rect x="150" y="196.02" width="6" height="3.97994" stroke="black" stroke-width="1" fill="blue" tooltip="enable"><title>(3.22635,242)</title></rect><rect x="156" y="196.579" width="6" height="3.42077" stroke="black" stroke-width="1" fill="blue" tooltip="enable"><title>(3.3554,208)</title></rect><rect x="162" y="196.76" width="6" height="3.23987" stroke="black" stroke-width="1" fill="blue" tooltip="enable"><title>(3.48446,197)</title></rect><rect x="168" y="197.319" width="6" height="2.6807" stroke="black" stroke-width="1" fill="blue" tooltip="enable"><title>(3.61351,163)</title></rect><rect x="174" y="197.582" width="6" height="2.41756" stroke="black" stroke-width="1" fill="blue" tooltip="enable"><title>(3.74257,147)</title></rect><rect x="180" y="197.615" width="6" height="2.38467" stroke="black" stroke-width="1" fill="blue" tooltip="enable"><title>(3.87162,145)</title></rect><rect x="186" y="198.207" width="6" height="1.79262" stroke="black" stroke-width="1" fill="blue" tooltip="enable"><title>(4.00068,109)</title></rect><rect x="192" y="198.388" width="6" height="1.61171" stroke="black" stroke-width="1" fill="blue" tooltip="enable"><title>(4.12973,98)</title></rect><rect x="198" y="198.388" width="6" height="1.61171" stroke="black" stroke-width="1" fill="blue" tooltip="enable"><title>(4.25878,98)</title></rect><rect x="204" y="198.454" width="6" height="1.54593" stroke="black" stroke-width="1" fill="blue" tooltip="enable"><title>(4.38784,94)</title></rect><rect x="210" y="198.651" width="6" height="1.34857" stroke="black" stroke-width="1" fill="blue" tooltip="enable"><title>(4.51689,82)</title></rect><rect x="216" y="198.503" width="6" height="1.49659" stroke="black" stroke-width="1" fill="blue" tooltip="enable"><title>(4.64595,91)</title></rect><rect x="222" y="198.783" width="6" height="1.21701" stroke="black" stroke-width="1" fill="blue" tooltip="enable"><title>(4.775,74)</title></rect><rect x="228" y="198.98" width="6" height="1.01965" stroke="black" stroke-width="1" fill="blue" tooltip="enable"><title>(4.90405,62)</title></rect><rect x="234" y="199.145" width="6" height="0.855193" stroke="black" stroke-width="1" fill="blue" tooltip="enable"><title>(5.03311,52)</title></rect><rect x="240" y="198.98" width="6" height="1.01965" stroke="black" stroke-width="1" fill="blue" tooltip="enable"><title>(5.16216,62)</title></rect><rect x="246" y="199.326" width="6" height="0.674287" stroke="black" stroke-width="1" fill="blue" tooltip="enable"><title>(5.29122,41)</title></rect><rect x="252" y="199.161" width="6" height="0.838747" stroke="black" stroke-width="1" fill="blue" tooltip="enable"><title>(5.42027,51)</title></rect><rect x="258" y="199.26" width="6" height="0.740071" stroke="black" stroke-width="1" fill="blue" tooltip="enable"><title>(5.54932,45)</title></rect><rect x="264" y="199.293" width="6" height="0.707179" stroke="black" stroke-width="1" fill="blue" tooltip="enable"><title>(5.67838,43)</title></rect><rect x="270" y="199.54" width="6" height="0.460488" stroke="black" stroke-width="1" fill="blue" tooltip="enable"><title>(5.80743,28)</title></rect><rect x="276" y="199.622" width="6" height="0.378258" stroke="black" stroke-width="1" fill="blue" tooltip="enable"><title>(5.93649,23)</title></rect><rect x="282" y="199.424" width="6" height="0.575611" stroke="black" stroke-width="1" fill="blue" tooltip="enable"><title>(6.06554,35)</title></rect><rect x="288" y="199.54" width="6" height="0.460488" stroke="black" stroke-width="1" fill="blue" tooltip="enable"><title>(6.19459,28)</title></rect><rect x="294" y="199.589" width="6" height="0.41115" stroke="black" stroke-width="1" fill="blue" tooltip="enable"><title>(6.32365,25)</title></rect><rect x="300" y="199.688" width="6" height="0.312474" stroke="black" stroke-width="1" fill="blue" tooltip="enable"><title>(6.4527,19)</title></rect><rect x="306" y="199.622" width="6" height="0.378258" stroke="black" stroke-width="1" fill="blue" tooltip="enable"><title>(6.58176,23)</title></rect><rect x="312" y="199.655" width="6" height="0.345366" stroke="black" stroke-width="1" fill="blue" tooltip="enable"><title>(6.71081,21)</title></rect><rect x="318" y="199.852" width="6" height="0.148014" stroke="black" stroke-width="1" fill="blue" tooltip="enable"><title>(6.83986,9)</title></rect><rect x="324" y="199.72" width="6" height="0.279582" stroke="black" stroke-width="1" fill="blue" tooltip="enable"><title>(6.96892,17)</title></rect><rect x="330" y="199.77" width="6" height="0.230244" stroke="black" stroke-width="1" fill="blue" tooltip="enable"><title>(7.09797,14)</title></rect><rect x="336" y="199.885" width="6" height="0.115122" stroke="black" stroke-width="1" fill="blue" tooltip="enable"><title>(7.22703,7)</title></rect><rect x="342" y="199.803" width="6" height="0.197352" stroke="black" stroke-width="1" fill="blue" tooltip="enable"><title>(7.35608,12)</title></rect><rect x="348" y="199.868" width="6" height="0.131568" stroke="black" stroke-width="1" fill="blue" tooltip="enable"><title>(7.48513,8)</title></rect><rect x="354" y="199.836" width="6" height="0.16446" stroke="black" stroke-width="1" fill="blue" tooltip="enable"><title>(7.61419,10)</title></rect><rect x="360" y="199.819" width="6" height="0.180906" stroke="black" stroke-width="1" fill="blue" tooltip="enable"><title>(7.74324,11)</title></rect><rect x="366" y="199.951" width="6" height="0.0493381" stroke="black" stroke-width="1" fill="blue" tooltip="enable"><title>(7.8723,3)</title></rect><rect x="372" y="199.836" width="6" height="0.16446" stroke="black" stroke-width="1" fill="blue" tooltip="enable"><title>(8.00135,10)</title></rect><rect x="378" y="199.951" width="6" height="0.0493381" stroke="black" stroke-width="1" fill="blue" tooltip="enable"><title>(8.1304,3)</title></rect><rect x="384" y="199.918" width="6" height="0.0822301" stroke="black" stroke-width="1" fill="blue" tooltip="enable"><title>(8.25946,5)</title></rect><rect x="390" y="199.967" width="6" height="0.032892" stroke="black" stroke-width="1" fill="blue" tooltip="enable"><title>(8.38851,2)</title></rect><rect x="396" y="199.934" width="6" height="0.0657841" stroke="black" stroke-width="1" fill="blue" tooltip="enable"><title>(8.51757,4)</title></rect><rect x="402" y="199.951" width="6" height="0.0493381" stroke="black" stroke-width="1" fill="blue" tooltip="enable"><title>(8.64662,3)</title></rect><rect x="408" y="199.934" width="6" height="0.0657841" stroke="black" stroke-width="1" fill="blue" tooltip="enable"><title>(8.77567,4)</title></rect><rect x="414" y="199.951" width="6" height="0.0493381" stroke="black" stroke-width="1" fill="blue" tooltip="enable"><title>(8.90473,3)</title></rect><rect x="420" y="199.967" width="6" height="0.032892" stroke="black" stroke-width="1" fill="blue" tooltip="enable"><title>(9.03378,2)</title></rect><rect x="426" y="199.967" width="6" height="0.032892" stroke="black" stroke-width="1" fill="blue" tooltip="enable"><title>(9.16284,2)</title></rect><rect x="432" y="199.918" width="6" height="0.0822301" stroke="black" stroke-width="1" fill="blue" tooltip="enable"><title>(9.29189,5)</title></rect><rect x="438" y="199.984" width="6" height="0.016446" stroke="black" stroke-width="1" fill="blue" tooltip="enable"><title>(9.42095,1)</title></rect><rect x="444" y="199.984" width="6" height="0.016446" stroke="black" stroke-width="1" fill="blue" tooltip="enable"><title>(9.55,1)</title></rect><rect x="450" y="199.984" width="6" height="0.016446" stroke="black" stroke-width="1" fill="blue" tooltip="enable"><title>(9.67905,1)</title></rect><rect x="456" y="199.967" width="6" height="0.032892" stroke="black" stroke-width="1" fill="blue" tooltip="enable"><title>(9.80811,2)</title></rect><rect x="462" y="199.984" width="6" height="0.016446" stroke="black" stroke-width="1" fill="blue" tooltip="enable"><title>(9.93716,1)</title></rect><rect x="468" y="199.951" width="6" height="0.0493381" stroke="black" stroke-width="1" fill="blue" tooltip="enable"><title>(10.0662,3)</title></rect><rect x="474" y="199.984" width="6" height="0.016446" stroke="black" stroke-width="1" fill="blue" tooltip="enable"><title>(10.1953,1)</title></rect><rect x="480" y="199.984" width="6" height="0.016446" stroke="black" stroke-width="1" fill="blue" tooltip="enable"><title>(10.3243,1)</title></rect><rect x="486" y="200" width="6" height="0" stroke="black" stroke-width="1" fill="blue" tooltip="enable"><title>(10.4534,0)</title></rect><rect x="492" y="199.967" width="6" height="0.032892" stroke="black" stroke-width="1" fill="blue" tooltip="enable"><title>(10.5824,2)</title></rect><rect x="498" y="200" width="6" height="0" stroke="black" stroke-width="1" fill="blue" tooltip="enable"><title>(10.7115,0)</title></rect><rect x="504" y="200" width="6" height="0" stroke="black" stroke-width="1" fill="blue" tooltip="enable"><title>(10.8405,0)</title></rect><rect x="510" y="200" width="6" height="0" stroke="black" stroke-width="1" fill="blue" tooltip="enable"><title>(10.9696,0)</title></rect><rect x="516" y="199.967" width="6" height="0.032892" stroke="black" stroke-width="1" fill="blue" tooltip="enable"><title>(11.0986,2)</title></rect><rect x="522" y="200" width="6" height="0" stroke="black" stroke-width="1" fill="blue" tooltip="enable"><title>(11.2277,0)</title></rect><rect x="528" y="200" width="6" height="0" stroke="black" stroke-width="1" fill="blue" tooltip="enable"><title>(11.3568,0)</title></rect><rect x="534" y="200" width="6" height="0" stroke="black" stroke-width="1" fill="blue" tooltip="enable"><title>(11.4858,0)</title></rect><rect x="540" y="199.984" width="6" height="0.016446" stroke="black" stroke-width="1" fill="blue" tooltip="enable"><title>(11.6149,1)</title></rect><rect x="546" y="199.984" width="6" height="0.016446" stroke="black" stroke-width="1" fill="blue" tooltip="enable"><title>(11.7439,1)</title></rect><rect x="552" y="200" width="6" height="0" stroke="black" stroke-width="1" fill="blue" tooltip="enable"><title>(11.873,0)</title></rect><rect x="558" y="200" width="6" height="0" stroke="black" stroke-width="1" fill="blue" tooltip="enable"><title>(12.002,0)</title></rect><rect x="564" y="200" width="6" height="0" stroke="black" stroke-width="1" fill="blue" tooltip="enable"><title>(12.1311,0)</title></rect><rect x="570" y="200" width="6" height="0" stroke="black" stroke-width="1" fill="blue" tooltip="enable"><title>(12.2601,0)</title></rect><rect x="576" y="200" width="6" height="0" stroke="black" stroke-width="1" fill="blue" tooltip="enable"><title>(12.3892,0)</title></rect><rect x="582" y="200" width="6" height="0" stroke="black" stroke-width="1" fill="blue" tooltip="enable"><title>(12.5182,0)</title></rect><rect x="588" y="200" width="6" height="0" stroke="black" stroke-width="1" fill="blue" tooltip="enable"><title>(12.6473,0)</title></rect><rect x="594" y="199.984" width="6" height="0.016446" stroke="black" stroke-width="1" fill="blue" tooltip="enable"><title>(12.7764,1)</title></rect><text x="30" y="240" font-size="20" fill="black">0</text>
<text x="600" y="240" font-size="20" fill="black">12.9054</text>
<polyline points="0,220,600,220" stroke="black" stroke-width="1" fill="none"/>
<text x="720" y="20" font-size="20" fill="black">12161</text>
<text x="720" y="200" font-size="20" fill="black">0</text>
<polyline points="660,0,660,200" stroke="black" stroke-width="1" fill="none"/>
</svg>